<?xml version="1.0" encoding="UTF-8" standalone="no"?>
<svg
   xmlns:dc="http://purl.org/dc/elements/1.1/"
   xmlns:cc="http://creativecommons.org/ns#"
   xmlns:rdf="http://www.w3.org/1999/02/22-rdf-syntax-ns#"
   xmlns:svg="http://www.w3.org/2000/svg"
   xmlns="http://www.w3.org/2000/svg"
   id="svg15280"
   version="1.1"
   viewBox="0 0 336.75957 106.90283"
   height="404.04221"
   width="1272.7921">
  <defs
     id="defs15274">
    <clipPath
       id="clipPath15903"
       clipPathUnits="userSpaceOnUse">
      <rect
         y="-68.448967"
         x="-352.54572"
         height="381.61688"
         width="582.08331"
         id="rect15905"
         style="opacity:1;fill:#fb6b02;fill-opacity:1;stroke:none;stroke-width:12.42083359;stroke-linecap:round;stroke-linejoin:round;stroke-miterlimit:4;stroke-dasharray:none;stroke-opacity:1;paint-order:stroke fill markers" />
    </clipPath>
    <clipPath
       clipPathUnits="userSpaceOnUse"
       id="clipPath7754-0">
      <path
         d="M 136.6999,79.17835 154.765,51.34518 c 1.7071,-2.63012 0.9588,-6.14611 -1.6713,-7.85318 -2.2481,-1.45912 -5.2104,-1.1474 -7.1055,0.74772 L 116.2553,73.9726 c -12.4967,12.49678 -12.4967,32.7581 0,45.2548 l 29.7329,29.7329 c 2.2172,2.2172 5.8119,2.2172 8.0291,0 1.8951,-1.8951 2.2068,-4.8574 0.7477,-7.1054 l -18.0651,-27.8332 c -6.8775,-10.5963 -6.8775,-24.24704 0,-34.84335 z m 13.6785,17.7965 c 0,8.83655 7.1634,16.00005 16,16.00005 8.8366,0 16,-7.1635 16,-16.00005 0,-8.83656 -7.1634,-16 -16,-16 -8.8366,0 -16,7.16344 -16,16 z m -71.0531,50.21845 15.07168,29.5614 c 1.4242,2.7934 4.8433,3.9034 7.63672,2.4792 2.3877,-1.2174 3.5989,-3.9386 2.9052,-6.5274 L 94.05588,132.0906 C 89.48176,115.0197 71.93498,104.8891 54.86407,109.4632 l -40.61588,10.883 c -3.0287,0.8115 -4.826067,3.9247 -4.01453,6.9534 0.69366,2.5887 3.1032,4.3398 5.77965,4.2002 l 33.13677,-1.7282 c 12.61543,-0.6579 24.4373,6.1674 30.17522,17.4217 z m -22.25147,2.9476 c -7.65268,-4.4182 -17.43812,-1.7962 -21.8564,5.8565 -4.41828,7.6526 -1.79628,17.4381 5.8564,21.8564 7.65269,4.4182 17.43813,1.7962 21.85641,-5.8564 4.41828,-7.6527 1.79628,-17.4382 -5.85641,-21.8565 z M 49.10994,63.49794 15.97318,61.76971 c -3.13129,-0.16331 -5.80209,2.24271 -5.9654,5.374 -0.139587,2.67646 1.6115,5.086 4.20028,5.77966 l 40.61587,10.88299 c 17.07091,4.57413 34.6177,-5.55651 39.19185,-22.62742 L 104.8988,20.56307 c 0.8115,-3.02871 -0.9859,-6.14184 -4.0146,-6.95338 -2.58872,-0.69366 -5.31002,0.51752 -6.52732,2.90519 L 79.28516,46.07628 C 73.54724,57.33054 61.72538,64.1559 49.10994,63.49794 Z M 57.68293,42.75379 C 65.33561,38.33551 67.95761,28.55006 63.53933,20.89738 59.12105,13.2447 49.33561,10.62269 41.68293,15.04097 34.03024,19.45925 31.40824,29.2447 35.82652,36.89738 c 4.41828,7.65268 14.20372,10.27468 21.85641,5.85641 z"
         id="path7752-8"
         style="clip-rule:evenodd" />
    </clipPath>
    <clipPath
       clipPathUnits="userSpaceOnUse"
       id="clipPath7760-1">
      <path
         d="M 0,0 H 192 V 192 H 0 Z"
         id="path7758-6" />
    </clipPath>
    <clipPath
       clipPathUnits="userSpaceOnUse"
       id="clipPath7766-2">
      <path
         d="M 5,7 H 188 V 185 H 5 Z"
         id="path7764-1" />
    </clipPath>
    <clipPath
       clipPathUnits="userSpaceOnUse"
       id="clipPath7770-1">
      <path
         d="M 9,10 H 183 V 183 H 9 Z"
         id="path7768-4" />
    </clipPath>
    <clipPath
       id="clipPath21155"
       clipPathUnits="userSpaceOnUse">
      <rect
         ry="0"
         rx="0"
         y="-2856.3135"
         x="4051.2505"
         height="55.160954"
         width="173.76511"
         id="rect21157"
         style="opacity:1;fill:#ffffff;fill-opacity:1;stroke:none;stroke-width:0.51280051;stroke-linecap:round;stroke-linejoin:round;stroke-miterlimit:4;stroke-dasharray:none;stroke-opacity:1;paint-order:markers stroke fill" />
    </clipPath>
    <clipPath
       id="clipPath21223"
       clipPathUnits="userSpaceOnUse">
      <rect
         style="opacity:1;fill:#fb6b02;fill-opacity:1;stroke:none;stroke-width:0.99381566;stroke-linecap:round;stroke-linejoin:round;stroke-miterlimit:4;stroke-dasharray:none;stroke-opacity:1;paint-order:markers stroke fill"
         id="rect21225"
         width="336.75958"
         height="106.90282"
         x="4408.5566"
         y="-2878.1082"
         rx="0"
         ry="0" />
    </clipPath>
  </defs>
  <metadata
     id="metadata15277">
    <rdf:RDF>
      <cc:Work
         rdf:about="">
        <dc:format>image/svg+xml</dc:format>
        <dc:type
           rdf:resource="http://purl.org/dc/dcmitype/StillImage" />
        <dc:title></dc:title>
      </cc:Work>
    </rdf:RDF>
  </metadata>
  <g
     transform="translate(200.89702,-82.437846)"
     id="layer1">
    <path
       id="rect20883"
       d="M -200.89702,82.437859 H 135.86256 V 189.34068 h -336.75958 z"
       style="opacity:1;fill:#fc9b01;fill-opacity:1;stroke:none;stroke-width:0.99381572;stroke-linecap:round;stroke-linejoin:round;stroke-miterlimit:4;stroke-dasharray:none;stroke-opacity:1;paint-order:markers stroke fill" />
    <g
       id="text20887"
       style="font-style:normal;font-weight:normal;font-size:45.86111069px;line-height:1.25;font-family:sans-serif;letter-spacing:0px;word-spacing:0px;fill:#ffffff;fill-opacity:1;stroke:none;stroke-width:0.65070152"
       aria-label="Secgrad">
      <path
         id="path22121"
         style="font-style:normal;font-variant:normal;font-weight:normal;font-stretch:normal;font-size:45.86111069px;font-family:'Fira Sans';-inkscape-font-specification:'Fira Sans';text-align:start;letter-spacing:-3.25350761px;text-anchor:start;fill:#ffffff;fill-opacity:1;stroke-width:0.65070152"
         d="m -90.69078,119.53972 q 3.164416,0 5.411611,0.91722 2.247194,0.87136 4.356805,2.75166 l -2.384778,2.65995 q -1.788583,-1.4217 -3.531305,-2.06375 -1.696861,-0.68792 -3.668889,-0.68792 -2.4765,0 -4.081639,1.14653 -1.605139,1.14653 -1.605139,3.34786 0,1.37583 0.550334,2.33892 0.550333,0.91722 2.017888,1.69686 1.513417,0.77964 4.356806,1.651 2.980972,0.91722 4.953,1.97203 1.972028,1.0548 3.164417,2.93511 1.23825,1.83444 1.23825,4.67783 0,2.75167 -1.375834,4.86128 -1.329972,2.10961 -3.898194,3.302 -2.522361,1.19239 -6.007806,1.19239 -6.558138,0 -10.731497,-4.08164 l 2.384775,-2.65995 q 1.926167,1.55928 3.898195,2.38478 1.972027,0.77964 4.402666,0.77964 2.935111,0 4.861278,-1.42169 1.926167,-1.46756 1.926167,-4.21923 0,-1.55927 -0.596195,-2.56822 -0.596194,-1.0548 -2.06375,-1.8803 -1.421694,-0.8255 -4.173361,-1.651 -4.861278,-1.46756 -7.108472,-3.53131 -2.247193,-2.06375 -2.247193,-5.59505 0,-2.38478 1.238249,-4.26509 1.284111,-1.8803 3.531305,-2.93511 2.293056,-1.0548 5.182306,-1.0548 z" />
      <path
         id="path22123"
         style="font-style:normal;font-variant:normal;font-weight:normal;font-stretch:normal;font-size:45.86111069px;font-family:'Fira Sans';-inkscape-font-specification:'Fira Sans';text-align:start;letter-spacing:-3.25350761px;text-anchor:start;fill:#ffffff;fill-opacity:1;stroke-width:0.65070152"
         d="m -58.726538,138.8931 q 0,1.05481 -0.09172,2.15548 h -15.409333 q 0.275167,3.98991 2.017889,5.87022 1.742722,1.8803 4.494389,1.8803 1.742722,0 3.210277,-0.50447 1.467556,-0.50447 3.072695,-1.60514 l 1.834444,2.52236 q -3.852333,3.02684 -8.438444,3.02684 -5.044722,0 -7.888111,-3.302 -2.797528,-3.302 -2.797528,-9.0805 0,-3.76061 1.192389,-6.64986 1.23825,-2.93511 3.485444,-4.58611 2.293056,-1.651 5.36575,-1.651 4.815417,0 7.383639,3.16441 2.568222,3.16442 2.568222,8.75947 z m -4.173361,-1.23825 q 0,-3.57716 -1.421694,-5.45747 -1.421695,-1.8803 -4.265084,-1.8803 -5.182305,0 -5.640916,7.61294 h 11.327694 z" />
      <path
         id="path22125"
         style="font-style:normal;font-variant:normal;font-weight:normal;font-stretch:normal;font-size:45.86111069px;font-family:'Fira Sans';-inkscape-font-specification:'Fira Sans';text-align:start;letter-spacing:-3.25350761px;text-anchor:start;fill:#ffffff;fill-opacity:1;stroke-width:0.65070152"
         d="m -46.436711,126.96922 q 2.155472,0 3.944055,0.64205 1.788583,0.5962 3.439583,1.97203 l -2.017889,2.65994 q -1.284111,-0.91722 -2.522361,-1.32997 -1.192388,-0.45861 -2.659944,-0.45861 -2.935111,0 -4.586111,2.33892 -1.605139,2.33891 -1.605139,6.92502 0,4.58612 1.605139,6.78745 1.605139,2.15547 4.586111,2.15547 1.421694,0 2.614083,-0.41275 1.192389,-0.45861 2.659945,-1.42169 l 1.926166,2.75166 q -3.302,2.65995 -7.383638,2.65995 -4.907139,0 -7.750528,-3.302 -2.797528,-3.302 -2.797528,-9.12636 0,-3.85234 1.284111,-6.74159 1.284111,-2.88925 3.623028,-4.49439 2.384778,-1.60513 5.640917,-1.60513 z" />
      <path
         id="path22127"
         style="font-style:normal;font-variant:normal;font-weight:normal;font-stretch:normal;font-size:45.86111069px;font-family:'Fira Sans';-inkscape-font-specification:'Fira Sans';text-align:start;letter-spacing:-3.25350761px;text-anchor:start;fill:#ffffff;fill-opacity:1;stroke-width:0.65070152"
         d="m -17.507184,128.62022 q -1.375833,0.45861 -3.026833,0.59619 -1.651,0.13758 -4.035778,0.13758 4.265083,1.92617 4.265083,6.09953 0,3.62303 -2.4765,5.91608 -2.4765,2.29306 -6.741583,2.29306 -1.651,0 -3.072694,-0.45861 -0.550334,0.36689 -0.871361,1.00894 -0.321028,0.5962 -0.321028,1.23825 0,1.97203 3.164417,1.97203 h 3.852333 q 2.430639,0 4.310944,0.87136 1.880306,0.87136 2.88925,2.38478 1.054806,1.51342 1.054806,3.43958 0,3.53131 -2.88925,5.41161 -2.88925,1.92617 -8.438445,1.92617 -3.898194,0 -6.19125,-0.8255 -2.247194,-0.77964 -3.210277,-2.38478 -0.963084,-1.60514 -0.963084,-4.1275 h 3.806473 q 0,1.46756 0.550333,2.29306 0.550333,0.87136 1.972028,1.28411 1.421694,0.45861 4.035777,0.45861 3.806473,0 5.411611,-0.96308 1.651,-0.91722 1.651,-2.79753 0,-1.69686 -1.284111,-2.56822 -1.284111,-0.87136 -3.577166,-0.87136 h -3.806472 q -3.072695,0 -4.677834,-1.28411 -1.559278,-1.32998 -1.559278,-3.302 0,-1.19239 0.687917,-2.29306 0.687917,-1.10067 1.972028,-1.97203 -2.109611,-1.10066 -3.118556,-2.7058 -0.963083,-1.651 -0.963083,-3.98992 0,-2.43064 1.192389,-4.35681 1.23825,-1.92616 3.347861,-2.98097 2.155472,-1.10066 4.769555,-1.10066 2.843389,0.0459 4.769556,-0.18345 1.926167,-0.27517 3.164417,-0.68792 1.284111,-0.45861 3.118555,-1.28411 z m -12.290778,1.37583 q -2.384777,0 -3.714749,1.51342 -1.284112,1.46755 -1.284112,3.89819 0,2.4765 1.329973,3.98992 1.329972,1.46755 3.760611,1.46755 2.4765,0 3.760611,-1.42169 1.329972,-1.46756 1.329972,-4.08164 0,-5.36575 -5.182306,-5.36575 z" />
      <path
         id="path22129"
         style="font-style:normal;font-variant:normal;font-weight:normal;font-stretch:normal;font-size:45.86111069px;font-family:'Fira Sans';-inkscape-font-specification:'Fira Sans';text-align:start;letter-spacing:-3.25350761px;text-anchor:start;fill:#ffffff;fill-opacity:1;stroke-width:0.65070152"
         d="m -5.9231886,126.96922 q 1.2841111,0 2.3847778,0.27516 l -0.7796389,4.1275 q -1.1006666,-0.27516 -2.1096111,-0.27516 -2.2471944,0 -3.6230282,1.651 -1.375833,1.651 -2.155472,5.13644 v 13.80419 h -4.219222 v -24.1688 h 3.623028 l 0.41275,4.90714 q 0.963083,-2.70581 2.6140831,-4.08164 1.651,-1.37583 3.8523333,-1.37583 z" />
      <path
         id="path22131"
         style="font-style:normal;font-variant:normal;font-weight:normal;font-stretch:normal;font-size:45.86111069px;font-family:'Fira Sans';-inkscape-font-specification:'Fira Sans';text-align:start;letter-spacing:-3.25350761px;text-anchor:start;fill:#ffffff;fill-opacity:1;stroke-width:0.65070152"
         d="m 12.724849,146.04744 q 0,1.46755 0.504472,2.20133 0.504472,0.68792 1.513417,1.05481 l -0.963084,2.93511 q -1.880305,-0.22931 -3.026833,-1.05481 -1.1465278,-0.8255 -1.6968611,-2.56822 -2.4306389,3.62303 -7.2001944,3.62303 -3.5771666,0 -5.6409166,-2.01789 -2.06375,-2.01789 -2.06375,-5.27403 0,-3.85233 2.7516667,-5.91608 2.79752771,-2.06375 7.888111,-2.06375 h 3.71475 v -1.78859 q 0,-2.56822 -1.23825,-3.66888 -1.23825,-1.10067 -3.8064722,-1.10067 -2.65994443,0 -6.5122777,1.28411 l -1.0548056,-3.07269 q 4.49438887,-1.651 8.3467222,-1.651 4.2650833,0 6.3746947,2.10961 2.109611,2.06375 2.109611,5.91608 z m -9.9060002,3.02683 q 3.6230278,0 5.6867778,-3.76061 v -5.54919 H 5.3412099 q -6.6957221,0 -6.6957221,4.953 0,2.15547 1.05480551,3.25613 1.05480555,1.10067 3.11855549,1.10067 z" />
      <path
         id="path22133"
         style="font-style:normal;font-variant:normal;font-weight:normal;font-stretch:normal;font-size:45.86111069px;font-family:'Fira Sans';-inkscape-font-specification:'Fira Sans';text-align:start;letter-spacing:-3.25350761px;text-anchor:start;fill:#ffffff;fill-opacity:1;stroke-width:0.65070152"
         d="m 36.892701,117.79699 v 33.89136 h -3.71475 l -0.41275,-3.34786 q -1.192389,1.83445 -2.980972,2.88925 -1.788584,1.00895 -3.989917,1.00895 -4.310944,0 -6.741583,-3.39372 -2.384778,-3.39373 -2.384778,-9.12637 0,-3.71475 1.146528,-6.604 1.146527,-2.88925 3.302,-4.49438 2.155472,-1.651 5.044722,-1.651 3.71475,0 6.512278,2.98097 v -12.65767 z m -10.181167,31.09384 q 1.926167,0 3.302,-0.87136 1.375833,-0.91723 2.659945,-2.70581 v -11.83217 q -1.192389,-1.55927 -2.568223,-2.33891 -1.329972,-0.8255 -3.026833,-0.8255 -2.797528,0 -4.356805,2.33891 -1.513417,2.33892 -1.513417,6.97089 0,4.67784 1.421694,6.97089 1.421695,2.29306 4.081639,2.29306 z" />
    </g>
    <path
       clip-path="url(#clipPath21223)"
       id="path6210-70"
       d="m 4429.4126,-2886.3055 a 26.716542,26.716542 0 0 1 26.7146,26.7203 26.716542,26.716542 0 0 1 -26.7146,26.7152 26.716542,26.716542 0 0 1 -26.7175,-26.7152 26.716542,26.716542 0 0 1 26.7175,-26.7203 m 26.7146,70.3986 c 0,7.0801 -1.858,23.5775 -14.6257,42.0139 l -5.4132,-32.2624 6.2829,-12.555 c -4.1443,-0.4576 -8.4855,-0.808 -12.9586,-0.808 -4.476,0 -8.8172,0.3243 -12.9588,0.808 l 6.2802,12.555 -5.4105,32.2624 c -12.7594,-18.4364 -14.6284,-34.9338 -14.6284,-42.0139 -15.9619,4.6752 -26.7175,13.0911 -26.7175,23.1114 v 26.7153 h 40.0747 7.2822 12.1533 7.2822 40.0747 v -26.7153 c 0,-10.0203 -10.6857,-18.4362 -26.7175,-23.1114 z"
       style="fill:#fb6b02;fill-opacity:1;stroke-width:6.67913532"
       transform="translate(-4609.4536,2960.546)" />
  </g>
</svg>
