<?xml version="1.0" encoding="UTF-8" standalone="no"?>
<svg
   xmlns:dc="http://purl.org/dc/elements/1.1/"
   xmlns:cc="http://creativecommons.org/ns#"
   xmlns:rdf="http://www.w3.org/1999/02/22-rdf-syntax-ns#"
   xmlns:svg="http://www.w3.org/2000/svg"
   xmlns="http://www.w3.org/2000/svg"
   id="svg15280"
   version="1.1"
   viewBox="0 0 336.75957 106.90283"
   height="404.04221"
   width="1272.7921">
  <defs
     id="defs15274">
    <clipPath
       id="clipPath15903"
       clipPathUnits="userSpaceOnUse">
      <rect
         y="-68.448967"
         x="-352.54572"
         height="381.61688"
         width="582.08331"
         id="rect15905"
         style="opacity:1;fill:#fb6b02;fill-opacity:1;stroke:none;stroke-width:12.42083359;stroke-linecap:round;stroke-linejoin:round;stroke-miterlimit:4;stroke-dasharray:none;stroke-opacity:1;paint-order:stroke fill markers" />
    </clipPath>
    <clipPath
       clipPathUnits="userSpaceOnUse"
       id="clipPath7754-0">
      <path
         d="M 136.6999,79.17835 154.765,51.34518 c 1.7071,-2.63012 0.9588,-6.14611 -1.6713,-7.85318 -2.2481,-1.45912 -5.2104,-1.1474 -7.1055,0.74772 L 116.2553,73.9726 c -12.4967,12.49678 -12.4967,32.7581 0,45.2548 l 29.7329,29.7329 c 2.2172,2.2172 5.8119,2.2172 8.0291,0 1.8951,-1.8951 2.2068,-4.8574 0.7477,-7.1054 l -18.0651,-27.8332 c -6.8775,-10.5963 -6.8775,-24.24704 0,-34.84335 z m 13.6785,17.7965 c 0,8.83655 7.1634,16.00005 16,16.00005 8.8366,0 16,-7.1635 16,-16.00005 0,-8.83656 -7.1634,-16 -16,-16 -8.8366,0 -16,7.16344 -16,16 z m -71.0531,50.21845 15.07168,29.5614 c 1.4242,2.7934 4.8433,3.9034 7.63672,2.4792 2.3877,-1.2174 3.5989,-3.9386 2.9052,-6.5274 L 94.05588,132.0906 C 89.48176,115.0197 71.93498,104.8891 54.86407,109.4632 l -40.61588,10.883 c -3.0287,0.8115 -4.826067,3.9247 -4.01453,6.9534 0.69366,2.5887 3.1032,4.3398 5.77965,4.2002 l 33.13677,-1.7282 c 12.61543,-0.6579 24.4373,6.1674 30.17522,17.4217 z m -22.25147,2.9476 c -7.65268,-4.4182 -17.43812,-1.7962 -21.8564,5.8565 -4.41828,7.6526 -1.79628,17.4381 5.8564,21.8564 7.65269,4.4182 17.43813,1.7962 21.85641,-5.8564 4.41828,-7.6527 1.79628,-17.4382 -5.85641,-21.8565 z M 49.10994,63.49794 15.97318,61.76971 c -3.13129,-0.16331 -5.80209,2.24271 -5.9654,5.374 -0.139587,2.67646 1.6115,5.086 4.20028,5.77966 l 40.61587,10.88299 c 17.07091,4.57413 34.6177,-5.55651 39.19185,-22.62742 L 104.8988,20.56307 c 0.8115,-3.02871 -0.9859,-6.14184 -4.0146,-6.95338 -2.58872,-0.69366 -5.31002,0.51752 -6.52732,2.90519 L 79.28516,46.07628 C 73.54724,57.33054 61.72538,64.1559 49.10994,63.49794 Z M 57.68293,42.75379 C 65.33561,38.33551 67.95761,28.55006 63.53933,20.89738 59.12105,13.2447 49.33561,10.62269 41.68293,15.04097 34.03024,19.45925 31.40824,29.2447 35.82652,36.89738 c 4.41828,7.65268 14.20372,10.27468 21.85641,5.85641 z"
         id="path7752-8"
         style="clip-rule:evenodd" />
    </clipPath>
    <clipPath
       clipPathUnits="userSpaceOnUse"
       id="clipPath7760-1">
      <path
         d="M 0,0 H 192 V 192 H 0 Z"
         id="path7758-6" />
    </clipPath>
    <clipPath
       clipPathUnits="userSpaceOnUse"
       id="clipPath7766-2">
      <path
         d="M 5,7 H 188 V 185 H 5 Z"
         id="path7764-1" />
    </clipPath>
    <clipPath
       clipPathUnits="userSpaceOnUse"
       id="clipPath7770-1">
      <path
         d="M 9,10 H 183 V 183 H 9 Z"
         id="path7768-4" />
    </clipPath>
    <clipPath
       id="clipPath21155"
       clipPathUnits="userSpaceOnUse">
      <rect
         ry="0"
         rx="0"
         y="-2856.3135"
         x="4051.2505"
         height="55.160954"
         width="173.76511"
         id="rect21157"
         style="opacity:1;fill:#ffffff;fill-opacity:1;stroke:none;stroke-width:0.51280051;stroke-linecap:round;stroke-linejoin:round;stroke-miterlimit:4;stroke-dasharray:none;stroke-opacity:1;paint-order:markers stroke fill" />
    </clipPath>
    <clipPath
       id="clipPath21223"
       clipPathUnits="userSpaceOnUse">
      <rect
         style="opacity:1;fill:#fb6b02;fill-opacity:1;stroke:none;stroke-width:0.99381566;stroke-linecap:round;stroke-linejoin:round;stroke-miterlimit:4;stroke-dasharray:none;stroke-opacity:1;paint-order:markers stroke fill"
         id="rect21225"
         width="336.75958"
         height="106.90282"
         x="4408.5566"
         y="-2878.1082"
         rx="0"
         ry="0" />
    </clipPath>
    <clipPath
       id="clipPath21237"
       clipPathUnits="userSpaceOnUse">
      <rect
         ry="0"
         rx="0"
         y="-2878.1082"
         x="4812.856"
         height="106.90282"
         width="336.75958"
         id="rect21239"
         style="opacity:1;fill:#fb6b02;fill-opacity:1;stroke:none;stroke-width:0.99381566;stroke-linecap:round;stroke-linejoin:round;stroke-miterlimit:4;stroke-dasharray:none;stroke-opacity:1;paint-order:markers stroke fill" />
    </clipPath>
  </defs>
  <metadata
     id="metadata15277">
    <rdf:RDF>
      <cc:Work
         rdf:about="">
        <dc:format>image/svg+xml</dc:format>
        <dc:type
           rdf:resource="http://purl.org/dc/dcmitype/StillImage" />
        <dc:title></dc:title>
      </cc:Work>
    </rdf:RDF>
  </metadata>
  <g
     transform="translate(200.89702,-82.437846)"
     id="layer1">
    <path
       id="rect20889"
       d="M -200.89703,82.437874 H 135.86255 V 189.34069 h -336.75958 z"
       style="opacity:1;fill:#fc9b01;fill-opacity:1;stroke:none;stroke-width:0.99381572;stroke-linecap:round;stroke-linejoin:round;stroke-miterlimit:4;stroke-dasharray:none;stroke-opacity:1;paint-order:markers stroke fill" />
    <path
       clip-path="url(#clipPath21237)"
       style="fill:#fb6b02;fill-opacity:1;stroke-width:4.75421286"
       d="m 4846.4598,-2793.9788 h 4.7558 a 4.7542126,4.7542126 0 0 1 4.7538,4.754 h 33.2793 v 9.5076 h -33.2793 a 4.7542126,4.7542126 0 0 1 -4.7538,4.754 h -19.0178 a 4.7542126,4.7542126 0 0 1 -4.7536,-4.754 h -33.2794 v -9.5076 h 33.2794 a 4.7542126,4.7542126 0 0 1 4.7536,-4.754 h 4.7559 v -9.5098 h -33.2811 a 4.7542126,4.7542126 0 0 1 -4.754,-4.7538 v -19.0156 a 4.7542126,4.7542126 0 0 1 4.754,-4.7561 h 76.0683 a 4.7542126,4.7542126 0 0 1 4.7538,4.7561 v 19.0156 a 4.7542126,4.7542126 0 0 1 -4.7538,4.7538 h -33.2811 v 9.5098 m -42.7872,-76.0664 h 76.0683 a 4.7542126,4.7542126 0 0 1 4.7538,4.7521 v 19.0175 a 4.7542126,4.7542126 0 0 1 -4.7538,4.7558 h -76.0683 a 4.7542126,4.7542126 0 0 1 -4.754,-4.7558 v -19.0175 a 4.7542126,4.7542126 0 0 1 4.754,-4.7521 m 23.7716,19.0156 h 4.7536 v -9.5097 h -4.7536 v 9.5097 m 0,38.0332 h 4.7536 v -9.5078 h -4.7536 v 9.5078 m -19.0158,-47.5429 v 9.5097 h 9.5058 v -9.5097 h -9.5058 m 0,38.0351 v 9.5078 h 9.5058 v -9.5078 z"
       id="path6796-0"
       transform="translate(-5013.753,2960.546)" />
    <g
       id="text20893"
       style="font-style:normal;font-weight:normal;font-size:45.86111069px;line-height:1.25;font-family:sans-serif;letter-spacing:0px;word-spacing:0px;fill:#ffffff;fill-opacity:1;stroke:none;stroke-width:0.65070152"
       aria-label="Infraestrutura">
      <path
         id="path22167"
         style="font-style:normal;font-variant:normal;font-weight:normal;font-stretch:normal;font-size:45.86111069px;font-family:'Fira Sans';-inkscape-font-specification:'Fira Sans';text-align:start;letter-spacing:-3.25350761px;text-anchor:start;fill:#ffffff;fill-opacity:1;stroke-width:0.65070152"
         d="m -147.89796,120.09006 v 31.59831 h -4.35681 v -31.59831 z" />
      <path
         id="path22169"
         style="font-style:normal;font-variant:normal;font-weight:normal;font-stretch:normal;font-size:45.86111069px;font-family:'Fira Sans';-inkscape-font-specification:'Fira Sans';text-align:start;letter-spacing:-3.25350761px;text-anchor:start;fill:#ffffff;fill-opacity:1;stroke-width:0.65070152"
         d="m -130.83858,126.96923 q 3.302,0 5.13644,1.97203 1.88031,1.97203 1.88031,5.41161 v 17.3355 h -4.21923 v -16.73931 q 0,-2.56822 -0.96308,-3.62302 -0.96308,-1.05481 -2.84339,-1.05481 -1.92616,0 -3.39372,1.10067 -1.46756,1.10066 -2.75167,3.16441 v 17.15206 h -4.21922 v -24.16881 h 3.62303 l 0.36689,3.57717 q 1.28411,-1.92617 3.16441,-3.02683 1.92617,-1.10067 4.21923,-1.10067 z" />
      <path
         id="path22171"
         style="font-style:normal;font-variant:normal;font-weight:normal;font-stretch:normal;font-size:45.86111069px;font-family:'Fira Sans';-inkscape-font-specification:'Fira Sans';text-align:start;letter-spacing:-3.25350761px;text-anchor:start;fill:#ffffff;fill-opacity:1;stroke-width:0.65070152"
         d="m -110.38476,120.68626 q -1.92617,0 -2.75167,0.87136 -0.8255,0.8255 -0.8255,2.61408 v 3.34786 h 5.87022 l -0.45861,3.25614 h -5.41161 v 20.91267 h -4.21922 V 130.7757 h -4.31095 v -3.25614 h 4.31095 v -3.302 q 0,-3.11855 1.97203,-4.99886 2.01789,-1.92616 5.59505,-1.92616 1.651,0 2.93511,0.32102 1.32998,0.27517 2.84339,0.91723 l -1.32997,3.07269 q -2.06375,-0.91722 -4.21922,-0.91722 z" />
      <path
         id="path22173"
         style="font-style:normal;font-variant:normal;font-weight:normal;font-stretch:normal;font-size:45.86111069px;font-family:'Fira Sans';-inkscape-font-specification:'Fira Sans';text-align:start;letter-spacing:-3.25350761px;text-anchor:start;fill:#ffffff;fill-opacity:1;stroke-width:0.65070152"
         d="m -95.938749,126.96923 q 1.284111,0 2.384778,0.27517 l -0.779639,4.1275 q -1.100666,-0.27517 -2.109611,-0.27517 -2.247194,0 -3.623029,1.651 -1.37583,1.651 -2.15547,5.13645 v 13.80419 h -4.21922 v -24.16881 h 3.62302 l 0.41275,4.90714 q 0.96309,-2.7058 2.614088,-4.08164 1.651,-1.37583 3.852333,-1.37583 z" />
      <path
         id="path22175"
         style="font-style:normal;font-variant:normal;font-weight:normal;font-stretch:normal;font-size:45.86111069px;font-family:'Fira Sans';-inkscape-font-specification:'Fira Sans';text-align:start;letter-spacing:-3.25350761px;text-anchor:start;fill:#ffffff;fill-opacity:1;stroke-width:0.65070152"
         d="m -77.290708,146.04745 q 0,1.46756 0.504473,2.20134 0.504472,0.68791 1.513416,1.0548 l -0.963083,2.93511 q -1.880306,-0.2293 -3.026833,-1.0548 -1.146528,-0.8255 -1.696861,-2.56822 -2.430639,3.62302 -7.200195,3.62302 -3.577166,0 -5.640916,-2.01789 -2.06375,-2.01788 -2.06375,-5.27402 0,-3.85234 2.751666,-5.91609 2.797528,-2.06375 7.888111,-2.06375 h 3.71475 v -1.78858 q 0,-2.56822 -1.23825,-3.66889 -1.23825,-1.10067 -3.806472,-1.10067 -2.659944,0 -6.512278,1.28412 l -1.054805,-3.0727 q 4.494389,-1.651 8.346722,-1.651 4.265083,0 6.374694,2.10961 2.109611,2.06375 2.109611,5.91609 z m -9.905999,3.02684 q 3.623027,0 5.686777,-3.76061 v -5.5492 h -3.164416 q -6.695723,0 -6.695723,4.953 0,2.15547 1.054806,3.25614 1.054806,1.10067 3.118556,1.10067 z" />
      <path
         id="path22177"
         style="font-style:normal;font-variant:normal;font-weight:normal;font-stretch:normal;font-size:45.86111069px;font-family:'Fira Sans';-inkscape-font-specification:'Fira Sans';text-align:start;letter-spacing:-3.25350761px;text-anchor:start;fill:#ffffff;fill-opacity:1;stroke-width:0.65070152"
         d="m -53.581467,138.89312 q 0,1.05481 -0.09172,2.15547 h -15.409333 q 0.275167,3.98992 2.017889,5.87022 1.742722,1.88031 4.494389,1.88031 1.742722,0 3.210277,-0.50447 1.467556,-0.50447 3.072695,-1.60514 l 1.834444,2.52236 q -3.852333,3.02683 -8.438444,3.02683 -5.044722,0 -7.888111,-3.302 -2.797528,-3.302 -2.797528,-9.0805 0,-3.76061 1.192389,-6.64986 1.23825,-2.93511 3.485444,-4.58611 2.293056,-1.651 5.36575,-1.651 4.815417,0 7.383639,3.16442 2.568222,3.16441 2.568222,8.75947 z m -4.173361,-1.23825 q 0,-3.57717 -1.421694,-5.45747 -1.421695,-1.88031 -4.265083,-1.88031 -5.182306,0 -5.640917,7.61295 h 11.327694 z" />
      <path
         id="path22179"
         style="font-style:normal;font-variant:normal;font-weight:normal;font-stretch:normal;font-size:45.86111069px;font-family:'Fira Sans';-inkscape-font-specification:'Fira Sans';text-align:start;letter-spacing:-3.25350761px;text-anchor:start;fill:#ffffff;fill-opacity:1;stroke-width:0.65070152"
         d="m -43.538837,126.96923 q 2.4765,0 4.448528,0.68792 1.972028,0.68791 3.760611,2.06375 l -1.788583,2.65994 q -1.651,-1.0548 -3.164417,-1.55928 -1.467555,-0.50447 -3.118555,-0.50447 -2.06375,0 -3.256139,0.87136 -1.192389,0.8255 -1.192389,2.29306 0,1.46755 1.100666,2.29305 1.146528,0.8255 4.081639,1.60514 4.035778,1.00895 6.007806,2.75167 2.017889,1.74272 2.017889,4.76956 0,3.57716 -2.797528,5.45747 -2.751667,1.8803 -6.741583,1.8803 -5.503334,0 -9.126361,-3.16441 l 2.247194,-2.56823 q 3.072694,2.33892 6.787444,2.33892 2.384778,0 3.760612,-0.96308 1.421694,-1.00895 1.421694,-2.70581 0,-1.23825 -0.504472,-1.97203 -0.504472,-0.77963 -1.742722,-1.32997 -1.23825,-0.59619 -3.623028,-1.23825 -3.852334,-1.00894 -5.595056,-2.7058 -1.696861,-1.69686 -1.696861,-4.31095 0,-1.8803 1.100667,-3.39372 1.146528,-1.55928 3.118555,-2.38478 2.017889,-0.87136 4.494389,-0.87136 z" />
      <path
         id="path22181"
         style="font-style:normal;font-variant:normal;font-weight:normal;font-stretch:normal;font-size:45.86111069px;font-family:'Fira Sans';-inkscape-font-specification:'Fira Sans';text-align:start;letter-spacing:-3.25350761px;text-anchor:start;fill:#ffffff;fill-opacity:1;stroke-width:0.65070152"
         d="m -19.7436,150.5877 q -2.384778,1.651 -5.411611,1.651 -3.072695,0 -4.815417,-1.74272 -1.696861,-1.78858 -1.696861,-5.13644 V 130.7757 h -4.219222 v -3.25614 h 4.219222 v -5.45747 l 4.219222,-0.50447 v 5.96194 h 5.732639 l -0.458611,3.25614 h -5.274028 v 14.40039 q 0,1.88031 0.642056,2.75167 0.687916,0.8255 2.247194,0.8255 1.421694,0 3.210278,-0.96308 z" />
      <path
         id="path22183"
         style="font-style:normal;font-variant:normal;font-weight:normal;font-stretch:normal;font-size:45.86111069px;font-family:'Fira Sans';-inkscape-font-specification:'Fira Sans';text-align:start;letter-spacing:-3.25350761px;text-anchor:start;fill:#ffffff;fill-opacity:1;stroke-width:0.65070152"
         d="m -8.1230558,126.96923 q 1.2841111,0 2.3847778,0.27517 l -0.7796389,4.1275 q -1.1006667,-0.27517 -2.1096111,-0.27517 -2.247194,0 -3.623028,1.651 -1.375833,1.651 -2.155472,5.13645 v 13.80419 h -4.219222 v -24.16881 h 3.623028 l 0.41275,4.90714 q 0.963083,-2.7058 2.614083,-4.08164 1.651,-1.37583 3.8523332,-1.37583 z" />
      <path
         id="path22185"
         style="font-style:normal;font-variant:normal;font-weight:normal;font-stretch:normal;font-size:45.86111069px;font-family:'Fira Sans';-inkscape-font-specification:'Fira Sans';text-align:start;letter-spacing:-3.25350761px;text-anchor:start;fill:#ffffff;fill-opacity:1;stroke-width:0.65070152"
         d="M 13.834147,151.68837 H 10.21112 l -0.3210282,-3.76061 q -1.3758334,2.24719 -3.1644167,3.302 -1.7885833,1.00894 -4.3568055,1.00894 -3.16441663,0 -4.9529999,-1.92616 -1.7885834,-1.92617 -1.7885834,-5.45748 v -17.3355 h 4.21922222 v 16.87689 q 0,2.4765 0.87136111,3.53131 0.87136107,1.00894 2.84338887,1.00894 3.5313055,0 6.0536666,-4.17336 v -17.24378 h 4.2192219 z" />
      <path
         id="path22187"
         style="font-style:normal;font-variant:normal;font-weight:normal;font-stretch:normal;font-size:45.86111069px;font-family:'Fira Sans';-inkscape-font-specification:'Fira Sans';text-align:start;letter-spacing:-3.25350761px;text-anchor:start;fill:#ffffff;fill-opacity:1;stroke-width:0.65070152"
         d="m 31.494734,150.5877 q -2.384778,1.651 -5.411611,1.651 -3.072694,0 -4.815416,-1.74272 -1.696862,-1.78858 -1.696862,-5.13644 V 130.7757 h -4.219222 v -3.25614 h 4.219222 v -5.45747 l 4.219223,-0.50447 v 5.96194 h 5.732638 l -0.458611,3.25614 h -5.274027 v 14.40039 q 0,1.88031 0.642055,2.75167 0.687917,0.8255 2.247195,0.8255 1.421694,0 3.210277,-0.96308 z" />
      <path
         id="path22189"
         style="font-style:normal;font-variant:normal;font-weight:normal;font-stretch:normal;font-size:45.86111069px;font-family:'Fira Sans';-inkscape-font-specification:'Fira Sans';text-align:start;letter-spacing:-3.25350761px;text-anchor:start;fill:#ffffff;fill-opacity:1;stroke-width:0.65070152"
         d="m 50.590632,151.68837 h -3.623027 l -0.321028,-3.76061 q -1.375834,2.24719 -3.164417,3.302 -1.788583,1.00894 -4.356805,1.00894 -3.164417,0 -4.953,-1.92616 -1.788584,-1.92617 -1.788584,-5.45748 v -17.3355 h 4.219223 v 16.87689 q 0,2.4765 0.871361,3.53131 0.871361,1.00894 2.843388,1.00894 3.531306,0 6.053667,-4.17336 v -17.24378 h 4.219222 z" />
      <path
         id="path22191"
         style="font-style:normal;font-variant:normal;font-weight:normal;font-stretch:normal;font-size:45.86111069px;font-family:'Fira Sans';-inkscape-font-specification:'Fira Sans';text-align:start;letter-spacing:-3.25350761px;text-anchor:start;fill:#ffffff;fill-opacity:1;stroke-width:0.65070152"
         d="m 66.554373,126.96923 q 1.284111,0 2.384778,0.27517 l -0.779639,4.1275 q -1.100666,-0.27517 -2.109611,-0.27517 -2.247194,0 -3.623028,1.651 -1.375833,1.651 -2.155472,5.13645 v 13.80419 h -4.219222 v -24.16881 h 3.623028 l 0.41275,4.90714 q 0.963083,-2.7058 2.614083,-4.08164 1.651,-1.37583 3.852333,-1.37583 z" />
      <path
         id="path22193"
         style="font-style:normal;font-variant:normal;font-weight:normal;font-stretch:normal;font-size:45.86111069px;font-family:'Fira Sans';-inkscape-font-specification:'Fira Sans';text-align:start;letter-spacing:-3.25350761px;text-anchor:start;fill:#ffffff;fill-opacity:1;stroke-width:0.65070152"
         d="m 85.202411,146.04745 q 0,1.46756 0.504472,2.20134 0.504472,0.68791 1.513417,1.0548 l -0.963084,2.93511 q -1.880305,-0.2293 -3.026833,-1.0548 -1.146528,-0.8255 -1.696861,-2.56822 -2.430639,3.62302 -7.200195,3.62302 -3.577166,0 -5.640916,-2.01789 -2.06375,-2.01788 -2.06375,-5.27402 0,-3.85234 2.751667,-5.91609 2.797527,-2.06375 7.888111,-2.06375 h 3.71475 v -1.78858 q 0,-2.56822 -1.23825,-3.66889 -1.23825,-1.10067 -3.806473,-1.10067 -2.659944,0 -6.512277,1.28412 l -1.054806,-3.0727 q 4.494389,-1.651 8.346722,-1.651 4.265084,0 6.374695,2.10961 2.109611,2.06375 2.109611,5.91609 z m -9.906,3.02684 q 3.623028,0 5.686778,-3.76061 v -5.5492 h -3.164417 q -6.695722,0 -6.695722,4.953 0,2.15547 1.054805,3.25614 1.054806,1.10067 3.118556,1.10067 z" />
    </g>
  </g>
</svg>
