<?xml version="1.0" encoding="UTF-8" standalone="no"?>
<svg
   xmlns:dc="http://purl.org/dc/elements/1.1/"
   xmlns:cc="http://creativecommons.org/ns#"
   xmlns:rdf="http://www.w3.org/1999/02/22-rdf-syntax-ns#"
   xmlns:svg="http://www.w3.org/2000/svg"
   xmlns="http://www.w3.org/2000/svg"
   id="svg15280"
   version="1.1"
   viewBox="0 0 336.75957 106.90283"
   height="404.04221"
   width="1272.7921">
  <defs
     id="defs15274">
    <clipPath
       id="clipPath15903"
       clipPathUnits="userSpaceOnUse">
      <rect
         y="-68.448967"
         x="-352.54572"
         height="381.61688"
         width="582.08331"
         id="rect15905"
         style="opacity:1;fill:#fb6b02;fill-opacity:1;stroke:none;stroke-width:12.42083359;stroke-linecap:round;stroke-linejoin:round;stroke-miterlimit:4;stroke-dasharray:none;stroke-opacity:1;paint-order:stroke fill markers" />
    </clipPath>
    <clipPath
       clipPathUnits="userSpaceOnUse"
       id="clipPath7754-0">
      <path
         d="M 136.6999,79.17835 154.765,51.34518 c 1.7071,-2.63012 0.9588,-6.14611 -1.6713,-7.85318 -2.2481,-1.45912 -5.2104,-1.1474 -7.1055,0.74772 L 116.2553,73.9726 c -12.4967,12.49678 -12.4967,32.7581 0,45.2548 l 29.7329,29.7329 c 2.2172,2.2172 5.8119,2.2172 8.0291,0 1.8951,-1.8951 2.2068,-4.8574 0.7477,-7.1054 l -18.0651,-27.8332 c -6.8775,-10.5963 -6.8775,-24.24704 0,-34.84335 z m 13.6785,17.7965 c 0,8.83655 7.1634,16.00005 16,16.00005 8.8366,0 16,-7.1635 16,-16.00005 0,-8.83656 -7.1634,-16 -16,-16 -8.8366,0 -16,7.16344 -16,16 z m -71.0531,50.21845 15.07168,29.5614 c 1.4242,2.7934 4.8433,3.9034 7.63672,2.4792 2.3877,-1.2174 3.5989,-3.9386 2.9052,-6.5274 L 94.05588,132.0906 C 89.48176,115.0197 71.93498,104.8891 54.86407,109.4632 l -40.61588,10.883 c -3.0287,0.8115 -4.826067,3.9247 -4.01453,6.9534 0.69366,2.5887 3.1032,4.3398 5.77965,4.2002 l 33.13677,-1.7282 c 12.61543,-0.6579 24.4373,6.1674 30.17522,17.4217 z m -22.25147,2.9476 c -7.65268,-4.4182 -17.43812,-1.7962 -21.8564,5.8565 -4.41828,7.6526 -1.79628,17.4381 5.8564,21.8564 7.65269,4.4182 17.43813,1.7962 21.85641,-5.8564 4.41828,-7.6527 1.79628,-17.4382 -5.85641,-21.8565 z M 49.10994,63.49794 15.97318,61.76971 c -3.13129,-0.16331 -5.80209,2.24271 -5.9654,5.374 -0.139587,2.67646 1.6115,5.086 4.20028,5.77966 l 40.61587,10.88299 c 17.07091,4.57413 34.6177,-5.55651 39.19185,-22.62742 L 104.8988,20.56307 c 0.8115,-3.02871 -0.9859,-6.14184 -4.0146,-6.95338 -2.58872,-0.69366 -5.31002,0.51752 -6.52732,2.90519 L 79.28516,46.07628 C 73.54724,57.33054 61.72538,64.1559 49.10994,63.49794 Z M 57.68293,42.75379 C 65.33561,38.33551 67.95761,28.55006 63.53933,20.89738 59.12105,13.2447 49.33561,10.62269 41.68293,15.04097 34.03024,19.45925 31.40824,29.2447 35.82652,36.89738 c 4.41828,7.65268 14.20372,10.27468 21.85641,5.85641 z"
         id="path7752-8"
         style="clip-rule:evenodd" />
    </clipPath>
    <clipPath
       clipPathUnits="userSpaceOnUse"
       id="clipPath7760-1">
      <path
         d="M 0,0 H 192 V 192 H 0 Z"
         id="path7758-6" />
    </clipPath>
    <clipPath
       clipPathUnits="userSpaceOnUse"
       id="clipPath7766-2">
      <path
         d="M 5,7 H 188 V 185 H 5 Z"
         id="path7764-1" />
    </clipPath>
    <clipPath
       clipPathUnits="userSpaceOnUse"
       id="clipPath7770-1">
      <path
         d="M 9,10 H 183 V 183 H 9 Z"
         id="path7768-4" />
    </clipPath>
    <clipPath
       id="clipPath21155"
       clipPathUnits="userSpaceOnUse">
      <rect
         ry="0"
         rx="0"
         y="-2856.3135"
         x="4051.2505"
         height="55.160954"
         width="173.76511"
         id="rect21157"
         style="opacity:1;fill:#ffffff;fill-opacity:1;stroke:none;stroke-width:0.51280051;stroke-linecap:round;stroke-linejoin:round;stroke-miterlimit:4;stroke-dasharray:none;stroke-opacity:1;paint-order:markers stroke fill" />
    </clipPath>
    <clipPath
       id="clipPath21223"
       clipPathUnits="userSpaceOnUse">
      <rect
         style="opacity:1;fill:#fb6b02;fill-opacity:1;stroke:none;stroke-width:0.99381566;stroke-linecap:round;stroke-linejoin:round;stroke-miterlimit:4;stroke-dasharray:none;stroke-opacity:1;paint-order:markers stroke fill"
         id="rect21225"
         width="336.75958"
         height="106.90282"
         x="4408.5566"
         y="-2878.1082"
         rx="0"
         ry="0" />
    </clipPath>
    <clipPath
       id="clipPath21237"
       clipPathUnits="userSpaceOnUse">
      <rect
         ry="0"
         rx="0"
         y="-2878.1082"
         x="4812.856"
         height="106.90282"
         width="336.75958"
         id="rect21239"
         style="opacity:1;fill:#fb6b02;fill-opacity:1;stroke:none;stroke-width:0.99381566;stroke-linecap:round;stroke-linejoin:round;stroke-miterlimit:4;stroke-dasharray:none;stroke-opacity:1;paint-order:markers stroke fill" />
    </clipPath>
    <clipPath
       id="clipPath21159"
       clipPathUnits="userSpaceOnUse">
      <rect
         style="opacity:1;fill:#ffffff;fill-opacity:1;stroke:none;stroke-width:0.99381566;stroke-linecap:round;stroke-linejoin:round;stroke-miterlimit:4;stroke-dasharray:none;stroke-opacity:1;paint-order:markers stroke fill"
         id="rect21161"
         width="336.75958"
         height="106.90282"
         x="4008.3745"
         y="-2721.1167"
         rx="0"
         ry="0" />
    </clipPath>
    <clipPath
       id="clipPath21229"
       clipPathUnits="userSpaceOnUse">
      <rect
         ry="0"
         rx="0"
         y="-2721.1167"
         x="4408.5566"
         height="106.90282"
         width="336.75958"
         id="rect21231"
         style="opacity:1;fill:#fb6b02;fill-opacity:1;stroke:none;stroke-width:0.99381566;stroke-linecap:round;stroke-linejoin:round;stroke-miterlimit:4;stroke-dasharray:none;stroke-opacity:1;paint-order:markers stroke fill" />
    </clipPath>
  </defs>
  <metadata
     id="metadata15277">
    <rdf:RDF>
      <cc:Work
         rdf:about="">
        <dc:format>image/svg+xml</dc:format>
        <dc:type
           rdf:resource="http://purl.org/dc/dcmitype/StillImage" />
        <dc:title></dc:title>
      </cc:Work>
    </rdf:RDF>
  </metadata>
  <g
     transform="translate(200.89702,-82.437846)"
     id="layer1">
    <path
       id="rect20901"
       d="M -200.89702,82.437843 H 135.86256 V 189.34066 h -336.75958 z"
       style="opacity:1;fill:#fc9b01;fill-opacity:1;stroke:none;stroke-width:0.99381572;stroke-linecap:round;stroke-linejoin:round;stroke-miterlimit:4;stroke-dasharray:none;stroke-opacity:1;paint-order:markers stroke fill" />
    <g
       id="text20905"
       style="font-style:normal;font-weight:normal;font-size:45.86111069px;line-height:1.25;font-family:sans-serif;letter-spacing:0px;word-spacing:0px;fill:#ffffff;fill-opacity:1;stroke:none;stroke-width:0.65070152"
       aria-label="UFPE">
      <path
         id="path22267"
         style="font-style:normal;font-variant:normal;font-weight:normal;font-stretch:normal;font-size:45.86111069px;font-family:'Fira Sans';-inkscape-font-specification:'Fira Sans';text-align:start;letter-spacing:-3.25350761px;text-anchor:start;fill:#ffffff;fill-opacity:1;stroke-width:0.65070152"
         d="m -54.223072,141.55303 q 0,3.16442 -1.329972,5.59506 -1.284111,2.38478 -3.806473,3.76061 -2.4765,1.32997 -5.961944,1.32997 -5.274028,0 -8.163278,-2.88925 -2.843388,-2.93511 -2.843388,-7.79639 v -21.463 h 4.356805 v 21.14198 q 0,3.66888 1.651,5.50333 1.651,1.83444 4.998861,1.83444 3.393722,0 5.044722,-1.78858 1.651,-1.83444 1.651,-5.54919 v -21.14198 h 4.402667 z" />
      <path
         id="path22269"
         style="font-style:normal;font-variant:normal;font-weight:normal;font-stretch:normal;font-size:45.86111069px;font-family:'Fira Sans';-inkscape-font-specification:'Fira Sans';text-align:start;letter-spacing:-3.25350761px;text-anchor:start;fill:#ffffff;fill-opacity:1;stroke-width:0.65070152"
         d="m -48.757952,151.68834 v -31.59831 h 16.785167 l -0.504472,3.48545 h -11.923889 v 10.77736 h 10.31875 v 3.43958 h -10.31875 v 13.89592 z" />
      <path
         id="path22271"
         style="font-style:normal;font-variant:normal;font-weight:normal;font-stretch:normal;font-size:45.86111069px;font-family:'Fira Sans';-inkscape-font-specification:'Fira Sans';text-align:start;letter-spacing:-3.25350761px;text-anchor:start;fill:#ffffff;fill-opacity:1;stroke-width:0.65070152"
         d="m -21.227904,120.09003 q 5.870222,0 9.0805,2.4765 3.210278,2.43064 3.210278,7.29192 0,5.18231 -3.347861,7.70467 -3.347861,2.52236 -8.897056,2.52236 h -3.989916 v 11.60286 h -4.356806 v -31.59831 z m -0.137583,16.55586 q 3.806472,0 5.7785,-1.46755 2.017889,-1.46756 2.017889,-5.27403 0,-3.39372 -2.017889,-4.90714 -1.972028,-1.51341 -5.686778,-1.51341 h -3.898194 v 13.16213 z" />
      <path
         id="path22273"
         style="font-style:normal;font-variant:normal;font-weight:normal;font-stretch:normal;font-size:45.86111069px;font-family:'Fira Sans';-inkscape-font-specification:'Fira Sans';text-align:start;letter-spacing:-3.25350761px;text-anchor:start;fill:#ffffff;fill-opacity:1;stroke-width:0.65070152"
         d="m 10.926947,120.09003 -0.504472,3.48545 H -1.8224414 v 10.31875 H 8.8173363 v 3.48544 H -1.8224414 v 10.82322 H 11.293836 v 3.48545 H -6.1792469 v -31.59831 z" />
    </g>
    <path
       clip-path="url(#clipPath21229)"
       id="path21131"
       d="m 4428.8877,-2606.8291 c -0.8508,-1.4007 -1.4405,-2.9771 -1.7654,-4.72 -0.2173,-1.1656 -0.4559,-3.5194 -0.3774,-3.7237 0.046,-0.122 0.5312,-0.2081 1.9818,-0.3526 1.056,-0.1047 2.0541,-0.2125 2.2179,-0.2384 0.2758,-0.044 0.3033,-0.012 0.3679,0.4191 0.09,0.6058 -0.127,3.703 -0.3423,4.8684 -0.26,1.4074 -0.9956,3.4269 -1.5218,4.1783 -0.1541,0.2198 -0.1752,0.2034 -0.5607,-0.4311 z m 38.7214,-0.3502 c -0.6394,-1.352 -1.0234,-2.6927 -1.2336,-4.309 -0.1735,-1.3344 -0.2708,-4.1363 -0.1477,-4.2601 0.038,-0.038 0.9933,0.032 2.1221,0.1561 1.1287,0.1247 2.1304,0.2265 2.2258,0.2265 0.2289,0 0.2294,0.6912 0,2.3471 -0.2116,1.5386 -0.5477,3.0104 -0.904,3.9588 -0.3051,0.8119 -1.0325,2.2387 -1.3536,2.655 l -0.2135,0.2765 -0.4971,-1.0509 z m -19.3569,-0.9065 c -0.5698,-1.0211 -1.0491,-2.2875 -1.3032,-3.4423 -0.2539,-1.154 -0.5353,-3.4696 -0.5369,-4.4185 v -0.636 h 2.3382 2.3382 l -0.075,1.2998 c -0.1047,1.7973 -0.448,3.8463 -0.8462,5.0472 -0.356,1.0733 -1.1824,2.7335 -1.3963,2.8048 -0.07,0.024 -0.3031,-0.2712 -0.5172,-0.655 z m -42.4288,-5.0314 c -0.4493,-2.1798 -0.9524,-4.6024 -1.1178,-5.3834 -0.2063,-0.9737 -0.2624,-1.4345 -0.1787,-1.4657 0.068,-0.025 1.2095,-0.2658 2.5382,-0.5349 1.3288,-0.2691 2.4457,-0.519 2.4821,-0.5554 0.058,-0.058 -0.7794,-5.222 -1.1373,-7.0053 -0.076,-0.3812 -0.097,-0.7188 -0.046,-0.7505 0.091,-0.057 1.9193,-0.4591 3.5313,-0.7775 10.3858,-2.0511 20.7832,-3.1458 31.8161,-3.3497 13.3897,-0.2477 25.029,0.5545 37.4919,2.5838 2.4235,0.3946 7.8886,1.4523 7.9973,1.548 0.03,0.025 -0.3713,2.424 -0.9696,5.8087 -0.1237,0.6998 -0.2545,1.4498 -0.2907,1.6667 l -0.065,0.3945 1.3661,0.2522 c 2.4036,0.4436 3.5805,0.7341 3.5502,0.8766 -0.016,0.074 -0.2545,1.2151 -0.5309,2.5373 -1.3703,6.5551 -1.6835,8.0024 -1.7455,8.0643 -0.037,0.037 -0.9025,-0.113 -1.9234,-0.3345 -3.5479,-0.7676 -8.3025,-1.5705 -11.2597,-1.9011 -0.8517,-0.095 -1.5869,-0.1833 -1.6335,-0.1955 -0.046,-0.012 1.4717,-0.4413 3.3741,-0.9533 6.4642,-1.7396 7.2187,-1.9611 7.2521,-2.1295 0.025,-0.126 -0.5051,-0.2619 -2.4537,-0.6299 -9.5202,-1.7977 -17.3116,-2.7125 -27.0604,-3.1774 -4.1241,-0.1967 -15.1984,-0.1635 -18.8067,0.056 -5.4018,0.3291 -10.5327,0.8448 -15.543,1.5622 -4.435,0.6351 -11.3429,1.9484 -11.602,2.206 -0.119,0.1178 -0.1616,0.1059 5.8898,1.7282 4.758,1.2761 4.89,1.3186 4.3145,1.3927 -0.3265,0.042 -1.4151,0.1824 -2.419,0.3119 -2.3327,0.3007 -6.4044,0.9915 -9.2374,1.5669 -1.2169,0.2473 -2.337,0.4723 -2.4891,0.5001 l -0.2765,0.051 z m 79.6391,-6.2127 c 0,-0.2368 -1.2432,-5.9457 -1.3086,-6.0087 -0.041,-0.039 -0.3284,-0.1058 -0.6391,-0.1465 l -0.5648,-0.075 -1.4153,2.4696 c -0.7784,1.3583 -1.4852,2.577 -1.5707,2.7083 -0.1803,0.2765 -0.12,0.3336 0.4081,0.3865 0.3706,0.037 0.4006,0.012 0.7743,-0.6589 l 0.3888,-0.6974 0.4979,0.063 c 0.2737,0.034 0.8075,0.1166 1.1862,0.1827 0.677,0.1178 0.6896,0.1267 0.7572,0.5239 0.1626,0.9556 0.2705,1.2184 0.5202,1.2665 0.4496,0.087 0.9658,0.08 0.9658,-0.014 z m -2.7928,-2.7132 -0.6354,-0.1262 0.5045,-0.8851 c 0.2774,-0.4868 0.5423,-0.9235 0.5884,-0.9706 0.046,-0.048 0.1702,0.3262 0.2757,0.8297 0.1059,0.5034 0.2172,1.0024 0.2481,1.1089 0.065,0.225 -0.043,0.2298 -0.9813,0.043 z m -66.4483,2.2731 c 0.037,-0.042 0.276,-1.3456 0.5315,-2.8972 0.2554,-1.5515 0.4924,-2.9154 0.5264,-3.0308 0.056,-0.1889 0.015,-0.2036 -0.4024,-0.1476 -0.2553,0.035 -0.4811,0.079 -0.5016,0.1 -0.02,0.02 -0.2013,1.0453 -0.4015,2.2772 -0.2003,1.2319 -0.391,2.2383 -0.4237,2.2365 -0.033,0 -0.5598,-0.8854 -1.1712,-1.9637 l -1.1118,-1.9603 -0.4798,0.037 c -0.9828,0.075 -1.0131,-0.067 0.5848,2.7307 0.8002,1.4004 1.4985,2.6132 1.5519,2.6951 0.071,0.1106 0.2449,0.1294 0.6638,0.074 0.3116,-0.041 0.5967,-0.1083 0.6336,-0.1506 z m 3.6458,-0.6208 0.3939,-0.065 -0.095,-0.801 c -0.052,-0.4405 -0.2299,-1.7468 -0.3939,-2.9029 l -0.2984,-2.1019 -0.5532,0.038 c -0.3042,0.02 -0.5875,0.07 -0.6294,0.1106 -0.07,0.068 0.6188,5.4216 0.7404,5.7505 0.03,0.081 0.1413,0.1219 0.2481,0.093 0.107,-0.03 0.3714,-0.083 0.5881,-0.1194 z m 58.4745,-0.441 c 0.9636,-0.4486 1.5894,-1.6316 1.5894,-3.0043 0,-1.1496 -0.4984,-1.992 -1.4095,-2.3826 -0.4697,-0.2012 -3.3452,-0.6915 -3.4488,-0.5879 -0.056,0.056 -0.6109,3.9694 -0.7294,5.1463 l -0.074,0.7303 1.1435,0.1684 c 1.7124,0.2521 2.2644,0.2389 2.9282,-0.07 z m -2.5315,-0.8054 c -0.1538,-0.04 -0.1823,-0.1343 -0.1387,-0.4573 0.282,-2.0872 0.5089,-3.6071 0.5437,-3.6419 0.087,-0.087 1.4577,0.2152 1.7062,0.3754 0.3283,0.2119 0.6766,0.9726 0.6798,1.4846 0,0.6679 -0.3221,1.5558 -0.7165,1.9502 -0.3458,0.3458 -0.4056,0.3646 -1.123,0.3525 -0.4169,-0.012 -0.8451,-0.036 -0.9515,-0.063 z m -53.0096,0.7131 c 0.034,-0.033 0.012,-0.4436 -0.056,-0.9104 -0.1833,-1.3173 -0.1659,-1.4964 0.1448,-1.4964 0.2018,0 0.4627,0.2561 1.121,1.1006 0.7537,0.967 0.893,1.0951 1.1474,1.0555 0.1594,-0.025 0.4763,-0.074 0.7046,-0.1094 0.2281,-0.036 0.4148,-0.093 0.4148,-0.1261 0,-0.033 -0.4772,-0.6038 -1.0604,-1.2671 -0.8273,-0.9408 -1.0212,-1.2209 -0.8821,-1.2743 0.099,-0.038 0.3015,-0.2786 0.4519,-0.5353 0.5506,-0.9395 0.2374,-2.0628 -0.6572,-2.3576 -0.3514,-0.1154 -0.6571,-0.1094 -1.7638,0.034 -0.7363,0.096 -1.3586,0.1945 -1.383,0.2189 -0.05,0.05 0.6348,5.6939 0.7051,5.8077 0.05,0.081 1.0133,-0.04 1.1132,-0.1402 z m -0.4476,-4.0121 c -0.043,-0.4512 -0.045,-0.8719 -0.012,-0.9351 0.039,-0.063 0.292,-0.1142 0.5622,-0.1142 1.3318,0 1.2176,1.5595 -0.1322,1.8066 l -0.3471,0.063 -0.077,-0.8203 z m 50.5424,3.4582 c 0.093,-0.6139 0.5132,-4.879 0.511,-5.1866 0,-0.3163 -0.2165,-0.4235 -0.8517,-0.4261 -0.3427,0 -0.3532,0.013 -0.4151,0.5792 -0.034,0.3195 -0.1629,1.4903 -0.2845,2.602 -0.1216,1.1116 -0.2211,2.1661 -0.2211,2.3432 0,0.3421 0.1178,0.4016 0.8524,0.4329 0.3191,0.013 0.3599,-0.021 0.409,-0.3446 z m -43.1972,-0.2651 c 0.042,-0.036 -0.027,-1.0399 -0.2868,-4.1982 l -0.064,-0.785 0.9157,-0.076 c 0.5037,-0.042 0.9579,-0.1023 1.0094,-0.1343 0.051,-0.032 0.094,-0.229 0.094,-0.4385 0,-0.4669 0.1379,-0.4597 -3.0423,-0.1594 -1.2777,0.1208 -2.3387,0.2198 -2.3575,0.2204 -0.019,5e-4 -0.019,0.1876 0,0.4158 l 0.034,0.4148 1.019,-0.037 c 1.1848,-0.043 1.0825,-0.1699 1.1883,1.4749 0.036,0.5475 0.1204,1.5564 0.1893,2.2418 l 0.1254,1.2462 0.5643,-0.073 c 0.3105,-0.039 0.5857,-0.09 0.6118,-0.113 z m 40.3317,-2.6481 c 0.6693,-1.4945 1.2337,-2.7914 1.254,-2.8819 0.03,-0.1298 -0.063,-0.1574 -0.4351,-0.1303 l -0.472,0.035 -0.9479,2.0933 c -0.5213,1.1514 -0.964,2.0226 -0.9839,1.936 -0.02,-0.087 -0.2938,-1.1028 -0.6087,-2.2585 l -0.5724,-2.1013 -0.6476,-0.09 c -0.3561,-0.05 -0.6667,-0.071 -0.6903,-0.048 -0.024,0.024 0.1059,0.5867 0.2886,1.2514 0.1822,0.6649 0.5436,2.0032 0.8032,2.9743 0.5176,1.9367 0.4945,1.905 1.4081,1.9281 l 0.3872,0.012 1.2168,-2.7172 z m -34.6742,2.3759 c 0.3821,-0.082 0.7112,-0.2489 0.9934,-0.5038 0.5983,-0.5405 0.6709,-0.9875 0.5368,-3.3009 -0.1484,-2.5575 -0.1047,-2.4193 -0.7407,-2.3247 -0.2862,0.043 -0.5317,0.088 -0.5453,0.1011 -0.014,0.013 0.042,0.9258 0.1245,2.028 0.1638,2.196 0.1439,2.5127 -0.1795,2.8687 -0.4889,0.538 -1.431,0.3977 -1.7032,-0.2537 -0.089,-0.2123 -0.228,-1.2778 -0.3187,-2.4377 -0.089,-1.1335 -0.1749,-2.069 -0.1913,-2.0791 -0.017,-0.012 -0.2915,0 -0.6108,0.027 -0.6899,0.053 -0.6528,-0.1778 -0.4229,2.638 0.1,1.2237 0.2155,2.0128 0.3263,2.227 0.2187,0.423 0.7747,0.8926 1.156,0.9764 0.1626,0.036 0.3455,0.081 0.4063,0.1023 0.2225,0.074 0.6106,0.051 1.1691,-0.068 z m 29.9701,-0.071 c 0,-0.1462 -1.8247,-5.7196 -1.9149,-5.8633 -0.052,-0.082 -0.3245,-0.1383 -0.6739,-0.1383 h -0.5869 l -1.1928,2.7381 c -0.6561,1.5059 -1.2163,2.8251 -1.2449,2.9316 -0.043,0.1607 0.023,0.1937 0.3887,0.1937 0.4395,0 0.4415,0 0.7929,-0.7881 l 0.3523,-0.7879 0.4092,0.068 c 0.2251,0.037 0.7412,0.068 1.147,0.069 h 0.7376 l 0.2452,0.7467 c 0.1348,0.4107 0.2662,0.7842 0.2921,0.8297 0.026,0.045 0.3179,0.083 0.649,0.083 0.331,0 0.6008,-0.037 0.5994,-0.083 z m -2.9015,-2.4389 c -0.4191,-0.018 -0.7467,-0.083 -0.7467,-0.1471 0,-0.1576 0.8133,-1.9775 0.8836,-1.9771 0.067,0 0.7058,2.1068 0.6485,2.1367 -0.021,0.012 -0.3747,0 -0.7854,-0.012 z m -21.2606,1.9222 c 0.6974,-0.4159 0.9888,-1.2707 0.7155,-2.0988 -0.1484,-0.4498 -0.5076,-0.7572 -1.5337,-1.313 -0.9156,-0.4959 -1.1253,-0.6857 -1.1253,-1.0185 0,-0.4357 0.4394,-0.6564 1.1372,-0.5712 0.3176,0.039 0.6895,0.1011 0.8264,0.1384 0.2314,0.063 0.249,0.032 0.249,-0.4291 0,-0.468 -0.02,-0.5009 -0.3458,-0.566 -0.6188,-0.1238 -1.6433,-0.073 -2.0625,0.1023 -0.5722,0.2391 -0.894,0.5732 -1.0267,1.0661 -0.2422,0.8992 0.2106,1.5949 1.499,2.3033 1.1819,0.6499 1.427,1.0615 0.9288,1.5597 -0.2055,0.2055 -0.3255,0.2264 -1.0234,0.1784 -0.4347,-0.03 -0.9055,-0.092 -1.046,-0.1368 -0.2462,-0.08 -0.2544,-0.062 -0.2213,0.4578 l 0.034,0.5401 0.6084,0.055 c 0.8876,0.081 2.0136,-0.045 2.3861,-0.2677 z m 15.5118,-1.0321 0.031,-1.1339 h 0.678 c 1.2707,0 2.0801,-0.7752 2.0801,-1.9924 0,-1.2391 -0.4668,-1.5434 -2.5021,-1.6313 l -1.3413,-0.058 -0.068,1.0389 c -0.038,0.5713 -0.1,1.925 -0.1399,3.0084 l -0.071,1.9696 0.6511,-0.033 0.651,-0.033 z m 0.064,-2.5323 c 0.038,-0.2822 0.07,-0.7054 0.07,-0.9402 0,-0.4029 0.019,-0.4271 0.3392,-0.4271 0.3564,0 0.7665,0.1706 0.9038,0.376 0.045,0.067 0.082,0.3108 0.083,0.5417 0,0.5921 -0.3841,0.9629 -1.0039,0.9629 h -0.4626 z m -9.9968,1.4704 c 0,-1.1773 -0.032,-2.5215 -0.071,-2.987 l -0.071,-0.8463 h -0.5921 -0.5923 l 3e-4,1.2445 c 3e-4,0.6845 0.033,2.0286 0.073,2.987 l 0.073,1.7423 h 0.5912 0.5911 v -2.1405 z m 2.4591,0.067 0.03,-2.0743 0.6079,1.8579 0.6078,1.8579 0.5428,-0.032 0.5428,-0.032 0.6194,-1.8254 0.6194,-1.8254 0.03,2.08 0.03,2.08 0.5784,-0.033 0.5783,-0.033 0.03,-2.9592 0.03,-2.9593 h -0.7633 c -0.6315,0 -0.7731,0.033 -0.8199,0.1935 -0.1929,0.6588 -1.2207,3.5279 -1.2901,3.6008 -0.046,0.049 -0.3669,-0.7852 -0.713,-1.853 l -0.6292,-1.9413 h -0.8257 -0.8256 v 2.9869 2.9869 h 0.4954 0.4953 z m -30.089,-9.0161 c -1.4757,-2.9608 -2.5215,-6.4742 -3.4495,-11.5882 -1.4229,-7.842 -2.1433,-17.2555 -2.6584,-34.737 -0.1699,-5.7717 -0.3474,-11.4024 -0.4292,-13.6298 l -0.073,-1.9587 0.7744,-0.1772 c 1.5034,-0.3441 1.7346,-0.3934 3.0734,-0.6553 7.3306,-1.434 14.2808,-2.2602 23.0347,-2.7384 3.5149,-0.1921 15.1579,-0.1929 18.696,0 9.7468,0.5275 18.8455,1.704 25.984,3.3595 l 0.9823,0.2278 -0.069,1.0108 c -0.08,1.1706 -0.2401,5.5667 -0.4021,11.0225 -0.062,2.0991 -0.1638,5.5092 -0.2255,7.5779 -0.6154,20.623 -2.2514,33.4888 -5.1525,40.5239 -0.6767,1.641 -1.3557,2.8975 -1.565,2.8963 -0.2324,0 -2.7067,-0.4297 -2.7537,-0.4767 -0.018,-0.018 0.1661,-0.2984 0.4098,-0.6226 1.5974,-2.1259 3.1278,-6.2641 4.073,-11.0133 1.5876,-7.9762 2.3267,-17.0635 2.8348,-34.8477 0.2006,-7.0233 0.3643,-11.6937 0.458,-13.069 l 0.069,-1.0108 -0.9823,-0.2297 c -0.8964,-0.2097 -3.1552,-0.6547 -5.4073,-1.0654 -4.0967,-0.7469 -11.0805,-1.4876 -17.479,-1.8536 -3.3066,-0.1891 -16.9768,-0.1869 -20.3003,0 -8.8129,0.5047 -16.8928,1.5364 -22.8186,2.914 l -0.9697,0.2254 0.058,0.8477 c 0.088,1.2752 0.2641,6.2971 0.3891,11.0808 0.1701,6.5128 0.4687,14.065 0.7195,18.1982 0.9436,15.5428 2.8963,25.0313 6.0944,29.6157 l 0.5948,0.8525 -0.414,0.068 c -0.2276,0.037 -0.7802,0.139 -1.2278,0.226 -1.3229,0.2574 -1.2312,0.3052 -1.8696,-0.9755 z m 6.1032,-0.1766 c -0.5445,-0.3399 -0.8193,-0.7655 -0.8245,-1.2765 0,-0.432 -0.031,-0.468 -0.5255,-0.7047 -0.6085,-0.2912 -0.8533,-0.5936 -1.037,-1.28 -0.1559,-0.5832 -0.019,-1.2011 0.3536,-1.6017 l 0.2301,-0.2469 -0.3248,-0.2733 c -0.8702,-0.7323 -0.925,-2.0905 -0.1046,-2.6052 0.3256,-0.2043 0.4743,-0.2205 1.4685,-0.1593 0.9337,0.057 1.3221,0.024 2.4889,-0.2151 1.6689,-0.3418 1.9877,-0.3499 2.3574,-0.06 1.2597,0.991 2.2979,0.5164 4.0098,-1.8327 0.9809,-1.346 1.6173,-2.5773 1.9039,-3.6832 l 0.2102,-0.8114 0.2377,0.572 c 0.5703,1.3723 2.1319,3.2517 3.6548,4.3984 1.6106,1.2129 3.41,2.0072 5.4115,2.3887 l 1.2462,0.2376 -1.1909,0.715 c -2.7678,1.6618 -6.9065,3.5611 -10.3406,4.7453 -1.3913,0.4796 -3.4018,0.9888 -5.0659,1.2826 -0.578,0.1023 -1.4243,0.2641 -1.8807,0.3599 -1.345,0.2825 -1.8859,0.2943 -2.2776,0.05 z m 44.5926,0.029 c -4.1492,-0.559 -6.1361,-1.4467 -7.0248,-3.1386 -0.2262,-0.4306 -0.4398,-1.3438 -0.441,-1.8858 0,-0.6704 0.2738,-2.1947 0.4899,-2.7121 0.2159,-0.5169 0.1489,-0.6032 -0.2443,-0.3147 -0.432,0.3167 -0.9841,1.1739 -1.2026,1.8668 l -0.1874,0.5946 -0.3486,-0.1457 c -0.9762,-0.4078 -3.0791,-0.7061 -6.695,-0.9493 -2.883,-0.1939 -4.8266,-0.6152 -6.2092,-1.3458 -2.0003,-1.0569 -2.8149,-3.2056 -1.9398,-5.1169 0.5585,-1.2199 1.7209,-2.141 4.5536,-3.6082 0.8519,-0.4411 1.8351,-0.9901 2.1849,-1.22 l 0.6361,-0.4178 v 0.2959 c 0,0.1627 -0.075,0.493 -0.1609,0.7341 -0.086,0.241 -0.1391,0.4552 -0.1177,0.4761 0.075,0.075 1.4638,-0.5446 2.4665,-1.1 1.4861,-0.8233 2.9499,-2.1136 3.2801,-2.8912 0.038,-0.088 0.096,-0.068 0.1789,0.063 0.068,0.107 0.4226,0.5667 0.7885,1.0216 1.4478,1.7998 3.3792,2.9578 7.2104,4.3236 2.4877,0.8869 3.6311,1.525 4.6804,2.6119 0.4003,0.4147 0.7738,0.7257 0.8298,0.6911 0.056,-0.035 0.213,-0.271 0.3491,-0.5255 0.2213,-0.414 0.247,-0.6194 0.2451,-1.9561 0,-2.1689 -0.3337,-3.3271 -2.4619,-8.629 -2.0336,-5.0661 -3.7926,-9.0752 -5.3302,-12.1481 -0.614,-1.2274 -0.8899,-2.3468 -0.8899,-3.6107 0,-1.9444 0.555,-3.282 1.9312,-4.6539 0.9965,-0.9936 1.9349,-1.5247 3.4478,-1.9517 1.2866,-0.3631 3.3357,-0.3595 4.4057,0.012 2.8546,0.9798 4.6374,3.3277 5.0474,6.6476 0.1733,1.4031 0.077,3.1148 -0.3851,6.9022 -0.209,1.7102 -0.4586,3.9807 -0.5546,5.0455 -0.3236,3.5907 -0.7488,7.9097 -0.7821,7.9443 -0.018,0.019 -0.067,-0.2797 -0.1059,-0.6637 -0.2411,-2.2966 -0.8555,-5.0634 -1.9316,-8.6994 -0.2399,-0.8108 -0.4987,-1.9156 -0.5751,-2.4552 -0.2518,-1.7783 0.1726,-3.0804 1.5282,-4.6896 0.8223,-0.9761 0.9009,-1.2162 0.9097,-2.7757 0,-1.056 -0.2234,-2.1089 -0.6166,-2.8313 -0.4627,-0.8503 -1.5011,-1.7986 -2.5541,-2.3324 -0.8685,-0.4403 -0.9986,-0.4737 -2.0002,-0.5133 -2.9511,-0.1166 -5.1945,1.4972 -5.6627,4.073 -0.2484,1.3658 0.074,2.4261 1.8811,6.195 2.678,5.584 6.3442,14.696 7.0774,17.5898 0.3145,1.2413 0.6666,4.657 0.6647,6.4463 0,2.2389 -0.3688,3.8351 -1.301,5.6689 -0.7622,1.4994 -2.1103,3.0933 -3.2869,3.886 -0.3034,0.2044 -0.5772,0.3658 -0.6084,0.3587 -0.031,-0.012 -0.5546,-0.08 -1.1631,-0.1621 z m -24.2828,-7.9619 c -4.2793,-0.9182 -7.9042,-4.1466 -9.6347,-8.5812 -0.2594,-0.6647 -0.5251,-1.191 -0.5903,-1.1694 -0.065,0.021 -0.3149,0.6701 -0.5548,1.4409 -0.24,0.7708 -0.4729,1.4015 -0.5176,1.4015 -0.045,0 -0.1871,-0.283 -0.3164,-0.6287 -1.8035,-4.8201 0.2953,-9.1551 5.4464,-11.2498 0.6187,-0.2516 0.5151,-0.4015 -0.2765,-0.3999 -0.7561,0 -1.5911,0.1892 -2.1673,0.4872 l -0.3695,0.1913 0.08,-0.257 c 0.1453,-0.4704 0.4085,-0.9143 0.9395,-1.5851 1.5606,-1.971 5.0024,-4.1427 9.3893,-5.9243 1.4182,-0.576 1.4913,-0.6213 1.6847,-1.0445 0.1106,-0.2434 0.2031,-0.6092 0.2044,-0.8131 0,-0.3961 -0.2903,-1.1229 -0.4527,-1.1229 -0.2423,0 -0.058,-0.1961 0.3552,-0.3786 0.5553,-0.245 1.1632,-0.7661 1.3778,-1.1811 0.2565,-0.4961 0.2027,-1.366 -0.125,-2.0197 -0.5599,-1.1171 -0.963,-1.2401 -0.5964,-0.182 0.4674,1.3496 0.1832,2.0379 -0.9754,2.3631 -0.4956,0.139 -1.1369,0.1814 -2.7473,0.1814 -1.8576,0 -2.1824,0.027 -2.8053,0.2378 l -0.7043,0.2379 -0.2537,-0.295 c -0.2674,-0.311 -0.5931,-1.25 -0.5931,-1.7104 v -0.2726 l 0.263,0.2838 c 0.3215,0.3468 0.9111,0.5213 1.7633,0.5222 0.8642,9e-4 1.0715,-0.123 1.0702,-0.6394 0,-0.8074 -1.2006,-2.3843 -2.1996,-2.894 -0.9334,-0.4762 -1.5365,-0.3948 -2.2589,0.3047 l -0.4216,0.4083 -0.3183,-0.3872 c -0.4327,-0.5265 -0.5444,-1.0792 -0.4734,-2.3432 l 0.061,-1.071 1.4511,-0.5484 c 2.5946,-0.9807 4.5345,-1.4982 6.3187,-1.6855 1.5426,-0.162 1.6995,-0.107 2.118,0.7457 0.3055,0.6222 0.3159,0.6988 0.3159,2.3304 0,1.8959 0.1,2.1036 0.506,1.0509 0.1564,-0.4056 0.2636,-0.9768 0.2959,-1.5765 0.049,-0.9123 -0.026,-1.3022 -0.4811,-2.4792 -0.078,-0.2032 -0.03,-0.2088 1.2369,-0.1429 2.1879,0.1142 4.3626,0.6048 5.334,1.2046 l 0.3648,0.2251 -0.4378,0.4041 c -0.2922,0.2698 -0.463,0.5388 -0.5138,0.809 -0.073,0.387 -0.037,0.4497 0.8146,1.4262 1.0826,1.2423 1.9626,2.4599 2.4718,3.4208 0.5877,1.1086 0.5865,1.0926 0.081,1.0248 -0.2771,-0.037 -0.4346,-0.014 -0.4346,0.063 0,0.067 0.2677,0.5339 0.5952,1.0379 1.644,2.5319 2.5026,5.2587 2.5007,7.9413 l -8e-4,1.051 -0.2833,-0.3595 c -0.5116,-0.6491 -0.6346,-0.5115 -0.766,0.8574 -0.2899,3.0184 -1.7253,6.5799 -3.3952,8.4239 -0.387,0.4275 -1.4877,1.3112 -1.6329,1.3112 -0.048,0 -0.019,-0.2862 0.063,-0.636 0.1996,-0.8482 0.1944,-2.1486 -0.012,-2.639 -0.1768,-0.4231 -0.3896,-0.4155 -0.3896,0.014 0,0.4196 -0.4101,1.3875 -0.8291,1.9568 -0.6266,0.8514 -1.643,1.5706 -3.5684,2.5249 -2.2702,1.1253 -3.5595,1.9866 -4.5313,3.0272 -1.0557,1.1305 -1.4967,2.045 -1.5595,3.2343 -0.077,1.4685 0.4162,2.6058 1.6025,3.6899 0.6679,0.6105 0.6402,0.631 -0.5175,0.3827 z m 1.0102,-38.4275 c 0.283,-0.3495 0.2157,-0.4995 -0.2442,-0.5442 -0.4495,-0.044 -1.0148,0.1141 -1.5181,0.424 -0.5523,0.3399 -0.3474,0.4707 0.6658,0.4247 0.7708,-0.034 0.9096,-0.074 1.0965,-0.3045 z m -22.3058,37.3994 -0.5532,-0.073 -0.1275,-1.4935 c -0.1232,-1.4441 -0.4291,-5.23 -0.7554,-9.3479 -0.087,-1.0953 -0.2687,-3.5983 -0.4042,-5.5623 l -0.2463,-3.5711 0.2689,-0.1796 c 0.4465,-0.2981 1.6151,-1.5243 1.8075,-1.8962 0.1611,-0.3115 0.163,-0.3899 0.018,-0.7372 -0.089,-0.2138 -0.2148,-0.3886 -0.2787,-0.3886 -0.2318,0 -0.1082,-0.2083 0.2579,-0.4345 0.832,-0.5143 0.7471,-1.2666 -0.197,-1.7451 l -0.5531,-0.2803 0.3262,-0.1667 c 0.5451,-0.2787 0.7135,-0.4842 0.7135,-0.871 0,-0.3245 -0.1023,-0.4483 -0.9127,-1.1032 -0.502,-0.4057 -1.1677,-0.8817 -1.4794,-1.058 -0.6182,-0.3495 -0.7017,-0.5474 -0.7043,-1.6703 v -0.5255 l 3.4018,4e-4 c 4.4289,6e-4 6.5547,0.095 6.5547,0.2906 0,0.081 -0.1369,0.2178 -0.3043,0.3056 -1.0403,0.5462 -2.8119,3.0776 -2.6381,3.7697 0.1495,0.5958 0.415,0.7226 1.5136,0.7226 h 1.0051 l -0.065,0.8021 c -0.144,1.7597 -0.5117,6.3401 -0.6683,8.3246 -0.2721,3.4477 -0.6056,7.6168 -0.7744,9.68 -0.087,1.0648 -0.245,3.0187 -0.3509,4.3421 l -0.1925,2.4061 h -0.4147 c -0.228,0 -0.8285,0.1 -1.3343,0.2214 -1.0591,0.255 -2.1176,0.3415 -2.911,0.238 z m 7.4949,-13.0824 c -1.0623,-0.6491 -1.0125,-0.4675 -0.7548,-2.7542 0.086,-0.7606 0.2388,-2.2043 0.3401,-3.2082 0.1011,-1.004 0.2054,-1.9345 0.231,-2.068 l 0.046,-0.2425 0.6055,0.2771 c 0.6997,0.3204 2.7948,0.8691 3.7633,0.9855 0.3651,0.044 0.7014,0.1011 0.7473,0.1282 0.046,0.026 -0.1344,0.3566 -0.4009,0.733 -0.6704,0.947 -0.8002,1.2312 -1.1146,2.4415 -0.2473,0.9516 -0.3212,1.0991 -0.74,1.4755 -0.5649,0.5077 -1.2202,1.4947 -1.4895,2.2434 -0.1094,0.3044 -0.2265,0.5517 -0.26,0.5498 -0.033,0 -0.4718,-0.2544 -0.9738,-0.5611 z m -11.1614,-7.7072 c -0.3748,-0.3024 -0.6239,-0.8954 -0.5641,-1.3431 0.048,-0.3556 0.018,-0.4142 -0.2853,-0.5628 -0.4858,-0.2384 -0.7621,-0.6771 -0.8226,-1.3065 -0.064,-0.6733 0.1214,-1.2753 0.4819,-1.5588 l 0.2715,-0.2136 -0.2796,-0.412 c -0.7161,-1.0553 0.012,-2.7389 1.0952,-2.54 0.5155,0.094 1.5324,0.6461 2.3753,1.2889 0.4281,0.3264 0.78,0.6248 0.782,0.6632 0,0.069 -1.5812,0.7731 -2.0818,0.9245 -0.3387,0.1023 -0.2391,0.1748 0.758,0.551 0.4562,0.1721 1.0203,0.4082 1.2533,0.5245 l 0.4235,0.2115 -0.5901,0.4135 c -0.3247,0.2274 -0.8738,0.583 -1.2203,0.7903 l -0.63,0.3767 0.9463,0.1916 c 0.5204,0.1059 0.9644,0.2098 0.9867,0.2322 0.075,0.075 -0.9696,1.1967 -1.4745,1.5821 -0.5629,0.4299 -1.0456,0.4931 -1.4254,0.1868 z m 8.7,-6.0715 c 0,-0.2624 0.927,-1.644 1.4905,-2.2215 0.5954,-0.6103 0.7265,-0.6932 1.0969,-0.6932 0.6094,0 1.031,0.2994 1.3552,0.9618 0.2511,0.5132 0.2676,0.6197 0.151,0.9728 -0.16,0.4852 -0.4805,0.7063 -1.3045,0.9003 -0.6412,0.1509 -2.7891,0.2123 -2.7891,0.08 z m 8.0116,-4.3357 c -0.3972,-0.1854 -1.0969,-0.8841 -0.9913,-0.9898 0.021,-0.021 0.2056,0.05 0.409,0.1586 0.6224,0.3329 2.0009,0.266 3.4512,-0.1676 1.4737,-0.4406 2.1652,-0.5325 2.6123,-0.3474 0.1846,0.076 0.3356,0.1718 0.3356,0.2116 0,0.041 -0.5103,0.1909 -1.134,0.3355 -0.6237,0.1447 -1.6069,0.404 -2.1849,0.5765 -1.4678,0.4379 -1.9456,0.4805 -2.4979,0.2226 z m -17.0888,-1.3054 c -0.726,-0.6791 -1.2436,-1.7252 -1.3013,-2.6299 -0.08,-1.2528 0.2977,-1.9913 1.3868,-2.7126 l 0.5113,-0.3387 h 5.4471 5.447 l 0.6978,0.4701 c 0.5198,0.3504 0.7684,0.609 0.9749,1.0144 0.624,1.2251 0.2151,2.9641 -0.9773,4.1564 l -0.5542,0.5542 h -5.5414 -5.5414 z m 5.5901,-6.6473 c -1.2442,-0.4472 -1.8293,-1.2098 -2.1607,-2.8163 -0.2594,-1.2567 -0.2662,-1.7323 -0.04,-2.8322 0.6537,-3.1864 3.6496,-5.6942 7.2925,-6.1043 1.4454,-0.1627 5.5662,-0.1364 7.7438,0.05 1.8064,0.154 4.6434,0.5282 8.4078,1.1086 2.8464,0.439 6.0235,0.8131 8.5182,1.0033 4.4948,0.3425 8.7862,-0.059 11.9862,-1.1239 0.6482,-0.2155 1.2474,-0.4197 1.3315,-0.4537 0.1141,-0.046 0.1046,0.018 -0.037,0.2563 -0.9651,1.6192 -6.5253,3.3814 -13.8337,4.3846 -1.4714,0.202 -2.2835,0.2428 -4.8123,0.2412 -2.8105,0 -3.232,-0.028 -5.5314,-0.3514 -1.369,-0.1923 -3.1362,-0.4132 -3.9272,-0.4909 -1.8899,-0.1855 -6.8035,-0.1847 -7.9653,0 -1.2198,0.1955 -2.4024,0.5237 -3.0281,0.8409 -1.3154,0.6665 -2.045,2.387 -1.1556,2.7251 0.2439,0.093 0.5379,0.012 1.8397,-0.5116 3.6592,-1.4686 4.9605,-1.7417 8.2627,-1.7336 2.1266,0 2.9652,0.069 7.7992,0.5945 1.75,0.1903 5.1941,0.1405 6.7814,-0.098 1.2812,-0.1924 1.3459,-0.1931 1.1062,-0.012 -0.41,0.3109 -1.8817,0.8514 -3.1037,1.1401 -2.5673,0.6063 -5.4834,0.8782 -11.3109,1.0546 -1.8863,0.057 -3.724,0.1592 -4.084,0.227 -0.9051,0.1703 -1.9162,0.5493 -4.0471,1.5172 -2.4476,1.1115 -3.4985,1.4614 -4.5912,1.5285 -0.6796,0.042 -1.0137,0.012 -1.4403,-0.1453 z m -5.3014,-18.9625 c -0.063,-1.319 -0.049,-1.6937 0.063,-1.7634 0.2137,-0.1321 1.8827,-0.5199 3.1382,-0.7292 1.4999,-0.25 4.8667,-0.2447 6.5071,0.012 1.8622,0.2895 1.7347,0.1712 1.7347,1.6101 0,0.902 -0.036,1.2197 -0.1384,1.2197 -0.739,0 -7.5088,0.7861 -9.984,1.1593 -0.6085,0.092 -1.1367,0.1673 -1.1739,0.1676 -0.037,2e-4 -0.1035,-0.7532 -0.1472,-1.6744 z m 55.6392,1.4447 c -1.699,-0.288 -7.6744,-1.0091 -9.6108,-1.1598 l -0.9819,-0.076 0.051,-1.1476 c 0.029,-0.6313 0.077,-1.1735 0.1083,-1.2049 0.2846,-0.2847 4.2976,-0.6586 5.9529,-0.5548 1.9306,0.1211 4.8005,0.6296 5.3017,0.9393 0.19,0.1177 0.051,3.3313 -0.1433,3.3109 -0.069,-0.012 -0.3738,-0.055 -0.678,-0.107 z m -33.1087,-3.1136 0.031,-1.3526 0.8297,-0.1966 c 1.1537,-0.2733 3.4835,-0.5252 4.8676,-0.5263 1.3525,0 3.6789,0.2518 4.8675,0.5292 l 0.8298,0.1937 0.031,1.3526 0.031,1.3527 h -5.7593 -5.7595 z m -23.4857,-1.9529 c -1.4105,-1.2572 -1.6271,-3.0352 -0.5114,-4.1991 0.6693,-0.6984 1.0733,-0.8253 3.9493,-1.2409 2.998,-0.4333 8.1409,-0.2497 9.2796,0.3312 0.2375,0.1212 0.6116,0.4304 0.8313,0.6871 0.6595,0.7704 0.7858,1.6338 0.3927,2.6842 -0.2374,0.6345 -1.0667,1.6635 -1.4349,1.7804 -0.1177,0.037 -0.8747,-0.017 -1.6822,-0.1191 -2.5678,-0.3272 -6.9704,-0.1106 -9.1931,0.4526 -0.3548,0.09 -0.7306,0.1636 -0.8353,0.1636 -0.1047,0 -0.4629,-0.243 -0.796,-0.54 z m 56.7603,0.3661 c -1.341,-0.3291 -3.042,-0.5158 -5.1995,-0.5705 -2.0611,-0.052 -2.844,-0.012 -5.0563,0.2605 l -0.5759,0.071 -0.6035,-0.6181 c -0.9384,-0.9611 -1.3092,-2.2652 -0.9136,-3.2121 0.214,-0.5123 0.8044,-1.1531 1.2907,-1.4014 1.2316,-0.6282 6.3755,-0.7765 9.7305,-0.2804 2.2721,0.3359 2.6999,0.4665 3.3018,1.0076 1.3329,1.1985 1.2204,2.9923 -0.2733,4.3575 -0.661,0.6041 -0.7395,0.6219 -1.7009,0.386 z m -34.0541,-1.5776 c -0.6025,-0.5869 -0.9362,-1.1574 -1.1321,-1.9354 -0.3342,-1.3272 0.7074,-2.8604 2.1086,-3.104 1.0585,-0.1841 3.2005,-0.4055 4.5357,-0.4687 2.1903,-0.1035 6.4617,0.3002 7.1975,0.6806 1.9449,1.0058 1.9914,3.5001 0.094,5.025 l -0.4177,0.3357 -1.307,-0.2327 c -2.4986,-0.4448 -7.2593,-0.4065 -9.5839,0.077 -0.4146,0.087 -0.7972,0.1569 -0.85,0.1569 -0.052,0 -0.3429,-0.2406 -0.6448,-0.5346 z m -17.5536,-5.5057 c -0.1217,-0.029 -0.5697,-0.13 -0.9956,-0.2246 -2.2507,-0.4991 -4.0377,-1.4183 -4.9273,-2.5343 -0.6194,-0.7769 -0.8044,-1.2537 -0.8567,-2.2083 -0.042,-0.7573 -0.012,-0.9825 0.2262,-1.5608 0.3765,-0.9261 1.6087,-2.8141 3.3855,-5.1875 2.4322,-3.2488 3.3111,-4.6952 3.8991,-6.4164 0.2256,-0.6607 0.2645,-0.9856 0.2645,-2.2125 0,-1.62 -0.1636,-2.3146 -0.9408,-3.9969 -0.2352,-0.5093 -0.3908,-0.926 -0.3455,-0.926 0.2079,0 1.4378,0.8368 2.1239,1.4451 0.9447,0.8375 1.5276,1.6997 1.9632,2.9038 0.6514,1.8001 0.7077,3.6077 0.1776,5.704 -0.2872,1.1359 -0.5268,1.6098 -1.8435,3.6475 -1.4818,2.2933 -2.0902,3.8834 -1.92,5.0187 0.1653,1.1024 0.9416,2.1738 1.902,2.6253 0.7122,0.3348 1.2052,0.3013 1.6166,-0.1106 0.3128,-0.3128 0.3331,-0.3799 0.272,-0.8963 -0.04,-0.3439 -0.2802,-0.9892 -0.6236,-1.6809 -0.3144,-0.6332 -0.5573,-1.2744 -0.557,-1.4705 8e-4,-0.6776 0.4726,-1.8865 1.4186,-3.6348 1.3409,-2.4783 1.6963,-3.4041 1.7642,-4.5964 0.034,-0.6038 0,-1.107 -0.082,-1.3674 -0.075,-0.2266 -0.1107,-0.4378 -0.078,-0.4692 0.1082,-0.1083 0.9537,0.84 1.2196,1.368 0.5559,1.1036 0.6527,2.5773 0.3333,5.0702 -0.1023,0.7939 -0.1541,1.5671 -0.1166,1.7182 0.038,0.1513 0.5207,0.8707 1.0725,1.5989 1.2763,1.6839 1.6077,2.339 1.5936,3.1495 -0.03,1.7018 -1.3587,3.3993 -3.4408,4.3951 -1.3985,0.669 -2.1772,0.8238 -4.3478,0.8648 -1.0648,0.02 -2.0356,0.013 -2.1573,-0.017 z m 44.251,-0.1557 c -3.1463,-0.6875 -5.1567,-1.9762 -5.8507,-3.7505 -0.298,-0.7619 -0.2562,-1.9298 0.097,-2.7311 0.4358,-0.9862 1.5963,-2.7563 3.2326,-4.9309 2.543,-3.3793 3.5204,-4.9843 4.0311,-6.619 0.2138,-0.6843 0.2591,-1.0721 0.2591,-2.2125 0,-1.5855 -0.199,-2.3978 -0.9572,-3.9057 -0.2417,-0.4808 -0.4149,-0.8989 -0.3847,-0.9291 0.1154,-0.1154 1.232,0.597 2.0555,1.3098 1.2692,1.0987 1.938,2.2271 2.3836,4.0227 0.3835,1.5453 0.1857,4.1768 -0.4284,5.6973 -0.1351,0.3347 -0.7218,1.3553 -1.3037,2.268 -1.3087,2.0524 -1.8157,3.0488 -2.0411,4.0109 -0.3124,1.3344 0.02,2.5183 0.9531,3.3908 1.1227,1.0501 2.2604,1.1278 2.6526,0.1811 0.1901,-0.459 0.017,-1.1044 -0.629,-2.3483 -0.4936,-0.9502 -0.5053,-0.9961 -0.4385,-1.7124 0.071,-0.767 0.3788,-1.4651 2.054,-4.6685 1.0179,-1.9465 1.3217,-3.3947 0.9623,-4.5887 -0.086,-0.2835 -0.1154,-0.5154 -0.067,-0.5154 0.049,0 0.339,0.274 0.645,0.6088 1.0742,1.1753 1.3272,2.676 0.9578,5.6797 -0.1106,0.8959 -0.1691,1.7533 -0.1311,1.9053 0.038,0.152 0.5119,0.8613 1.0528,1.5763 1.5059,1.9906 1.7895,2.7048 1.5059,3.7932 -0.5407,2.0763 -2.2427,3.5882 -4.9152,4.3665 -1.2228,0.3561 -4.2832,0.4107 -5.6973,0.1011 z m -21.9595,-0.9369 c -3.1471,-0.5328 -5.4123,-1.8237 -6.2718,-3.574 -0.2617,-0.5331 -0.3106,-0.7716 -0.3106,-1.5175 0,-0.7711 0.048,-0.9848 0.3651,-1.6595 0.5072,-1.0759 1.4755,-2.5294 3.2745,-4.9156 2.9856,-3.9599 3.8807,-5.6114 4.1728,-7.6992 0.2224,-1.5903 -0.1292,-3.2747 -1.0783,-5.1662 l -0.3735,-0.7445 0.3044,0.1316 c 1.2387,0.5355 2.904,2.0844 3.4882,3.2446 0.7438,1.4769 0.9096,2.2219 0.9096,4.0866 0,2.6491 -0.2228,3.3264 -2.0108,6.1143 -1.454,2.2671 -1.9112,3.27 -1.9949,4.3757 -0.1117,1.4714 0.5395,2.7875 1.6676,3.3726 0.7664,0.3977 1.4532,0.384 1.8144,-0.036 0.4183,-0.4862 0.3123,-1.2328 -0.3593,-2.533 -0.5221,-1.0107 -0.5308,-1.0442 -0.4748,-1.8265 0.06,-0.834 0.3025,-1.3969 1.9605,-4.5442 0.8061,-1.5303 1.112,-2.5196 1.112,-3.5965 0,-0.487 -0.046,-1.0468 -0.1034,-1.2442 -0.057,-0.1974 -0.067,-0.3589 -0.023,-0.3589 0.1608,0 0.9989,0.9533 1.225,1.3933 0.3017,0.5871 0.5569,1.8047 0.5545,2.6447 0,0.365 -0.092,1.3779 -0.2019,2.2509 -0.1094,0.873 -0.1787,1.6992 -0.1525,1.8362 0.026,0.137 0.4976,0.8417 1.0476,1.5657 0.5499,0.7242 1.1496,1.6319 1.3324,2.017 0.2916,0.6143 0.325,0.7826 0.2717,1.3708 -0.081,0.8858 -0.6769,2.0894 -1.3993,2.8233 -1.8218,1.8507 -5.422,2.7515 -8.7467,2.1885 z"
       style="fill:#fb6b02;fill-opacity:1;stroke-width:0.11062742"
       transform="translate(-4609.4536,2803.5547)" />
  </g>
</svg>
