<?xml version="1.0" encoding="utf-8"?>
<svg viewBox="0 0 336.75957 106.90283" xmlns="http://www.w3.org/2000/svg">
  <defs/>
  <g transform="matrix(1.07365000248, -0.002808000194, 0.00269000046, 1.028339982033, 188.441092719233, -80.594320906915)" id="layer1" style="transform-origin: -31.456px 132.706px;">
    <path id="rect20895" d="M -199.836 79.254 L 136.924 79.254 L 136.924 186.157 L -199.836 186.157 L -199.836 79.254 Z" style="opacity:1;fill:#fc9b01;fill-opacity:1;stroke:none;stroke-width:0.99381572;stroke-linecap:round;stroke-linejoin:round;stroke-miterlimit:4;stroke-dasharray:none;stroke-opacity:1;paint-order:markers stroke fill"/>
    <path d="M -58.97 117.8 Q -56.92 117.8 -55.41 118.39 Q -53.9 118.97 -52.58 120.18 L -54.4 122.28 Q -55.44 121.41 -56.49 121.02 Q -57.54 120.63 -58.74 120.63 Q -60.09 120.63 -60.91 121.23 Q -61.74 121.83 -61.74 122.92 Q -61.74 123.65 -61.42 124.13 Q -61.1 124.6 -60.26 125.02 Q -59.42 125.44 -57.76 125.95 Q -54.91 126.84 -53.47 128.17 Q -52.02 129.5 -52.02 132.05 Q -52.02 133.79 -52.91 135.13 Q -53.79 136.47 -55.44 137.23 Q -57.09 137.99 -59.36 137.99 Q -61.57 137.99 -63.32 137.27 Q -65.07 136.56 -66.33 135.33 L -64.43 133.2 Q -63.31 134.15 -62.1 134.64 Q -60.9 135.13 -59.44 135.13 Q -57.85 135.13 -56.87 134.37 Q -55.89 133.62 -55.89 132.25 Q -55.89 131.41 -56.22 130.86 Q -56.56 130.31 -57.37 129.88 Q -58.18 129.45 -59.72 128.97 Q -62.8 128.02 -64.18 126.67 Q -65.55 125.33 -65.55 123.15 Q -65.55 121.55 -64.71 120.35 Q -63.87 119.14 -62.37 118.47 Q -60.87 117.8 -58.97 117.8 Z M -45.27 118.22 L -45.27 137.57 L -48.97 137.57 L -48.97 118.22 Z M -34.93 117.8 Q -33.03 117.8 -31.56 118.37 Q -30.09 118.95 -28.77 120.07 L -30.76 122.14 Q -31.79 121.33 -32.7 120.96 Q -33.61 120.6 -34.82 120.6 Q -37.06 120.6 -38.49 122.39 Q -39.91 124.18 -39.91 127.88 Q -39.91 131.74 -38.78 133.45 Q -37.65 135.16 -35.32 135.16 Q -33.56 135.16 -32.24 134.4 L -32.24 129.36 L -35.15 129.36 L -35.55 126.62 L -28.6 126.62 L -28.6 136.08 Q -31.74 137.99 -35.27 137.99 Q -39.41 137.99 -41.61 135.41 Q -43.81 132.83 -43.81 127.88 Q -43.81 124.71 -42.62 122.43 Q -41.43 120.15 -39.41 118.97 Q -37.39 117.8 -34.93 117.8 Z M -13.81 137.57 L -15.01 133.09 L -21.43 133.09 L -22.63 137.57 L -26.47 137.57 L -20.45 118.22 L -15.88 118.22 L -9.89 137.57 Z M -20.7 130.29 L -15.77 130.29 L -18.23 121.05 Z M 1.76 137.57 L 0.56 133.09 L -5.86 133.09 L -7.06 137.57 L -10.9 137.57 L -4.88 118.22 L -0.31 118.22 L 5.68 137.57 Z M -5.13 130.29 L -0.2 130.29 L -2.66 121.05 Z" transform="matrix(1.615515, 0, 0, 1.651421, 51.379761, -76.474106)" style="fill: rgb(255, 255, 255);"/>
  </g>
  <path d="M 108.491 12.559 L 107.876 12.264 L 108.491 12.559 L 108.491 12.555 L 21.011 -30.371 C 19.81 -30.803 18.248 -30.898 17.064 -30.492 L -71.251 12.826 C -72.489 13.587 -73.315 14.831 -73.447 15.93 C -73.398 17.063 -72.733 18.43 -71.635 19.243 C -71.566 19.282 -71.382 19.389 -71.298 19.432 L -52.871 28.473 L -52.871 63.102 C -52.829 65.022 -52.132 67.018 -50.901 68.574 C -45.234 75.507 -23.192 98.351 18.899 98.351 C 36.035 98.351 45.809 95.627 55.52 91.793 L 58.879 90.469 L 58.879 113.412 C 59.015 114.502 59.629 115.792 60.462 116.488 L 60.911 116.768 L 60.981 116.812 L 61.016 116.825 C 62.151 117.308 63.745 117.325 65.037 116.81 L 65.098 116.787 L 65.148 116.752 C 66.254 116.035 66.986 114.846 67.131 113.655 L 67.141 86.287 L 68.201 85.67 C 76.017 81.134 82.574 75.814 88.639 68.649 C 89.841 67.091 90.627 65.043 90.669 63.131 L 90.669 28.473 L 109.037 19.463 C 110.201 18.732 111.119 17.495 111.247 16.33 C 111.203 15.193 110.495 13.792 109.327 12.972 C 109.21 12.91 109.096 12.851 109.061 12.836 L 108.491 12.559 Z M -72.955 20.978 L -72.965 20.969 L -72.955 20.976 L -72.955 20.978 Z M -73.016 20.942 L -73.941 20.394 L -73.016 20.94 L -73.016 20.942 Z M 59.615 118.511 L 59.616 118.51 L 59.66 118.54 L 59.615 118.511 Z M 18.899 90.864 C -19.248 90.864 -38.811 70.745 -44.164 64.242 L -44.609 63.701 L -44.609 32.532 L 17.067 62.78 C 18.249 63.184 19.814 63.085 21.011 62.658 L 58.879 44.075 L 58.879 82.004 L 57.646 82.597 C 47.85 87.275 36.076 90.864 18.899 90.864 Z M 82.177 63.978 L 81.949 64.248 C 77.289 69.777 74.789 71.864 71.045 74.592 L 67.141 77.433 L 67.141 40.02 L 82.406 32.527 L 82.409 63.702 L 82.177 63.978 Z M 15.317 11.288 L 15.378 11.245 L 16.856 12.873 L 16.859 12.871 L 16.808 12.909 C 16.811 12.906 16.824 12.9 16.832 12.895 C 16.845 12.887 16.91 12.856 16.963 12.832 C 17.005 12.815 17.162 12.765 17.277 12.75 C 17.428 12.727 17.965 12.789 18.219 12.972 C 18.413 13.111 16.748 12.943 16.748 12.943 L 16.737 12.954 L 15.317 11.288 Z M 14.777 16.352 C 14.971 17.545 16.028 18.831 17.084 19.51 L 54.335 37.788 L 18.899 55.175 L -60.649 16.143 L 18.899 -22.891 L 98.446 16.143 L 63.01 33.53 L 20.761 12.806 C 19.561 12.377 18.035 12.395 16.94 12.851 L 16.814 12.904 L 16.772 12.939 L 16.69 12.983 L 16.64 13.015 L 16.192 13.314 C 15.406 13.993 14.821 15.214 14.777 16.352 Z M 14.763 16.178 L 14.765 16.201 L 14.761 16.178 L 14.763 16.178 Z M 14.767 16.211 L 14.765 16.208 L 14.765 16.203 L 14.767 16.211 Z M 14.765 16.203 L 14.765 16.201 L 14.765 16.203 Z" style="fill: rgb(251, 107, 2); fill-rule: nonzero;"/>
  <path d="M 98.427 14.186 L 98.887 14.442 C 98.931 14.464 99.048 14.532 99.152 14.598 L 99.18 14.615 L 99.199 14.631 C 100.253 15.514 100.941 17.049 101 18.236 L 101.001 18.27 L 100.998 18.3 C 100.852 19.536 99.977 20.908 98.935 21.678 L 98.915 21.693 L 83.706 30.243 L 83.706 63.338 C 83.658 65.254 82.943 67.379 81.902 68.94 C 76.774 75.876 71.203 81.059 64.601 85.452 L 63.934 85.897 L 63.926 112.018 L 63.923 112.041 C 63.772 113.281 63.056 114.601 62.056 115.374 L 61.974 115.434 L 61.93 115.455 L 61.873 115.482 C 60.681 115.999 59.129 115.981 58.069 115.493 L 58.001 115.46 L 57.967 115.436 L 57.906 115.393 L 57.497 115.099 L 57.476 115.077 C 56.717 114.323 56.126 112.925 55.994 111.806 L 55.991 111.781 L 55.991 90.432 L 53.873 91.389 C 45.686 95.091 37.368 97.748 22.892 97.748 C -12.672 97.748 -31.404 75.548 -36.18 68.855 C -37.248 67.286 -37.877 65.218 -37.924 63.3 L -37.924 30.242 L -53.164 21.672 C -53.246 21.623 -53.405 21.517 -53.456 21.486 L -53.491 21.464 L -53.515 21.442 C -54.508 20.565 -55.154 19.069 -55.215 17.888 L -55.217 17.851 L -55.212 17.817 C -55.069 16.659 -54.27 15.283 -53.158 14.472 L -53.14 14.459 L 21.138 -27.297 L 21.167 -27.308 C 22.27 -27.713 23.77 -27.619 24.857 -27.185 L 24.882 -27.175 L 98.684 14.326 L 98.684 14.329 Z M 97.684 14.917 L 97.684 14.91 L 24.445 -26.273 C 23.521 -26.66 22.449 -26.746 21.568 -26.392 L -52.607 15.307 C -53.56 15.96 -54.124 16.935 -54.214 17.884 C -54.184 18.88 -53.735 19.961 -52.899 20.655 C -52.828 20.701 -52.722 20.772 -52.659 20.809 L -36.924 29.658 L -36.924 63.297 C -36.898 65.077 -36.359 66.852 -35.36 68.282 C -30.608 74.944 -12.29 96.748 22.892 96.748 C 37.216 96.748 45.328 94.159 53.461 90.477 L 56.285 89.201 L 56.991 88.882 L 56.991 111.727 C 57.093 112.7 57.511 113.738 58.138 114.328 L 58.488 114.58 L 58.511 114.596 L 58.505 114.593 C 59.353 115.031 60.479 115.045 61.459 114.572 L 61.46 114.572 L 61.462 114.57 C 62.32 113.961 62.824 113.01 62.926 111.965 L 62.934 85.363 L 64.046 84.62 C 70.585 80.277 76.027 75.216 81.092 68.354 C 82.069 66.915 82.682 65.091 82.706 63.325 L 82.706 29.657 L 98.377 20.848 C 99.277 20.212 99.919 19.24 100 18.241 C 99.974 17.245 99.51 16.127 98.6 15.432 C 98.519 15.381 98.455 15.344 98.439 15.336 L 97.941 15.06 Z M -53.547 22.682 L -53.852 22.987 L -53.852 23.635 L -54.239 23.374 L -54.302 23.437 L -54.625 23.114 L -55.41 22.585 L -54.852 21.755 L -53.852 22.428 L -53.852 22.445 Z M 57.07 115.997 L 57.455 116.299 L 56.85 117.096 L 56.344 116.723 Z M 22.892 90.537 C -9.357 90.537 -26.001 70.97 -30.512 64.69 L -30.981 64.037 L -30.981 33.002 L 21.571 62.54 C 22.45 62.894 23.524 62.806 24.445 62.421 L 56.991 44.119 L 56.991 81.802 L 56.732 81.944 L 55.694 82.514 C 47.425 87.036 37.409 90.537 22.892 90.537 Z M 55.214 81.637 L 55.991 81.21 L 55.991 45.829 L 24.882 63.323 L 24.856 63.333 C 23.774 63.766 22.273 63.861 21.17 63.457 L 21.141 63.446 L -29.981 34.712 L -29.981 63.715 L -29.7 64.106 C -25.213 70.354 -8.975 89.537 22.892 89.537 C 37.245 89.537 47.02 86.126 55.214 81.637 Z M 76.473 64.439 L 76.282 64.7 C 72.337 70.059 70.194 72.112 67.035 74.75 L 62.934 78.172 L 62.934 40.777 L 76.763 32.999 L 76.765 64.044 Z M 75.765 63.714 L 75.763 34.709 L 63.934 41.361 L 63.934 76.036 L 66.395 73.982 C 69.528 71.366 71.589 69.401 75.476 64.108 L 75.667 63.848 Z M 20.015 12.656 L 21.28 14.253 L 20.9 14.507 L 20.904 14.513 L 20.905 14.512 L 24.611 12.19 L 22.713 14.088 C 23.38 14.068 24.065 14.17 24.647 14.397 L 24.672 14.407 L 59.963 34.246 L 88.723 18.074 L 22.892 -18.946 L -42.94 18.074 L 22.892 55.092 L 51.651 38.92 L 21.093 21.738 L 21.07 21.72 C 20.127 21.01 19.14 19.605 18.932 18.346 L 18.925 18.304 L 18.927 18.258 C 18.928 18.251 18.928 18.244 18.928 18.238 L 18.918 18.197 L 18.918 18.171 L 18.742 17.113 L 17.403 17.984 L 18.675 16.712 L 18.374 14.908 L 19.076 16.311 L 19.802 15.585 C 19.946 15.362 20.102 15.162 20.266 14.994 L 20.285 14.974 L 20.379 14.903 L 19.189 13.304 Z M 21.235 15.513 L 20.983 15.715 L 20.976 15.705 L 20.942 15.731 C 20.35 16.305 19.957 17.257 19.928 18.25 C 20.065 19.275 20.814 20.294 21.637 20.896 L 53.691 38.92 L 22.892 56.24 L -44.98 18.074 L 22.892 -20.094 L 90.763 18.074 L 59.963 35.394 L 24.235 15.309 C 23.788 15.121 23.305 15.03 22.83 15.037 C 22.833 15.06 22.833 15.081 22.83 15.102 C 22.809 15.271 22.596 15.481 22.512 15.516 C 22.432 15.55 22.307 15.567 22.237 15.571 C 22.118 15.576 21.944 15.569 21.783 15.559 C 21.587 15.546 21.378 15.526 21.23 15.511 L 21.228 15.513 Z" style="fill: none;"/>
</svg>