<?xml version="1.0" encoding="UTF-8" standalone="no"?>
<svg
   xmlns:dc="http://purl.org/dc/elements/1.1/"
   xmlns:cc="http://creativecommons.org/ns#"
   xmlns:rdf="http://www.w3.org/1999/02/22-rdf-syntax-ns#"
   xmlns:svg="http://www.w3.org/2000/svg"
   xmlns="http://www.w3.org/2000/svg"
   id="svg15280"
   version="1.1"
   viewBox="0 0 336.75957 106.90292"
   height="404.04254"
   width="1272.7921">
  <defs
     id="defs15274">
    <clipPath
       id="clipPath15903"
       clipPathUnits="userSpaceOnUse">
      <rect
         y="-68.448967"
         x="-352.54572"
         height="381.61688"
         width="582.08331"
         id="rect15905"
         style="opacity:1;fill:#fb6b02;fill-opacity:1;stroke:none;stroke-width:12.42083359;stroke-linecap:round;stroke-linejoin:round;stroke-miterlimit:4;stroke-dasharray:none;stroke-opacity:1;paint-order:stroke fill markers" />
    </clipPath>
    <clipPath
       clipPathUnits="userSpaceOnUse"
       id="clipPath7754-0">
      <path
         d="M 136.6999,79.17835 154.765,51.34518 c 1.7071,-2.63012 0.9588,-6.14611 -1.6713,-7.85318 -2.2481,-1.45912 -5.2104,-1.1474 -7.1055,0.74772 L 116.2553,73.9726 c -12.4967,12.49678 -12.4967,32.7581 0,45.2548 l 29.7329,29.7329 c 2.2172,2.2172 5.8119,2.2172 8.0291,0 1.8951,-1.8951 2.2068,-4.8574 0.7477,-7.1054 l -18.0651,-27.8332 c -6.8775,-10.5963 -6.8775,-24.24704 0,-34.84335 z m 13.6785,17.7965 c 0,8.83655 7.1634,16.00005 16,16.00005 8.8366,0 16,-7.1635 16,-16.00005 0,-8.83656 -7.1634,-16 -16,-16 -8.8366,0 -16,7.16344 -16,16 z m -71.0531,50.21845 15.07168,29.5614 c 1.4242,2.7934 4.8433,3.9034 7.63672,2.4792 2.3877,-1.2174 3.5989,-3.9386 2.9052,-6.5274 L 94.05588,132.0906 C 89.48176,115.0197 71.93498,104.8891 54.86407,109.4632 l -40.61588,10.883 c -3.0287,0.8115 -4.826067,3.9247 -4.01453,6.9534 0.69366,2.5887 3.1032,4.3398 5.77965,4.2002 l 33.13677,-1.7282 c 12.61543,-0.6579 24.4373,6.1674 30.17522,17.4217 z m -22.25147,2.9476 c -7.65268,-4.4182 -17.43812,-1.7962 -21.8564,5.8565 -4.41828,7.6526 -1.79628,17.4381 5.8564,21.8564 7.65269,4.4182 17.43813,1.7962 21.85641,-5.8564 4.41828,-7.6527 1.79628,-17.4382 -5.85641,-21.8565 z M 49.10994,63.49794 15.97318,61.76971 c -3.13129,-0.16331 -5.80209,2.24271 -5.9654,5.374 -0.139587,2.67646 1.6115,5.086 4.20028,5.77966 l 40.61587,10.88299 c 17.07091,4.57413 34.6177,-5.55651 39.19185,-22.62742 L 104.8988,20.56307 c 0.8115,-3.02871 -0.9859,-6.14184 -4.0146,-6.95338 -2.58872,-0.69366 -5.31002,0.51752 -6.52732,2.90519 L 79.28516,46.07628 C 73.54724,57.33054 61.72538,64.1559 49.10994,63.49794 Z M 57.68293,42.75379 C 65.33561,38.33551 67.95761,28.55006 63.53933,20.89738 59.12105,13.2447 49.33561,10.62269 41.68293,15.04097 34.03024,19.45925 31.40824,29.2447 35.82652,36.89738 c 4.41828,7.65268 14.20372,10.27468 21.85641,5.85641 z"
         id="path7752-8"
         style="clip-rule:evenodd" />
    </clipPath>
    <clipPath
       clipPathUnits="userSpaceOnUse"
       id="clipPath7760-1">
      <path
         d="M 0,0 H 192 V 192 H 0 Z"
         id="path7758-6" />
    </clipPath>
    <clipPath
       clipPathUnits="userSpaceOnUse"
       id="clipPath7766-2">
      <path
         d="M 5,7 H 188 V 185 H 5 Z"
         id="path7764-1" />
    </clipPath>
    <clipPath
       clipPathUnits="userSpaceOnUse"
       id="clipPath7770-1">
      <path
         d="M 9,10 H 183 V 183 H 9 Z"
         id="path7768-4" />
    </clipPath>
    <clipPath
       id="clipPath21155"
       clipPathUnits="userSpaceOnUse">
      <rect
         ry="0"
         rx="0"
         y="-2856.3135"
         x="4051.2505"
         height="55.160954"
         width="173.76511"
         id="rect21157"
         style="opacity:1;fill:#ffffff;fill-opacity:1;stroke:none;stroke-width:0.51280051;stroke-linecap:round;stroke-linejoin:round;stroke-miterlimit:4;stroke-dasharray:none;stroke-opacity:1;paint-order:markers stroke fill" />
    </clipPath>
  </defs>
  <metadata
     id="metadata15277">
    <rdf:RDF>
      <cc:Work
         rdf:about="">
        <dc:format>image/svg+xml</dc:format>
        <dc:type
           rdf:resource="http://purl.org/dc/dcmitype/StillImage" />
        <dc:title></dc:title>
      </cc:Work>
    </rdf:RDF>
  </metadata>
  <g
     transform="translate(216.9332,-87.562889)"
     id="layer1">
    <path
       id="rect20865"
       d="M -216.9332,87.562889 H 119.82639 V 194.46571 H -216.9332 Z"
       style="opacity:1;fill:#fc9b01;fill-opacity:1;stroke:none;stroke-width:0.99381572;stroke-linecap:round;stroke-linejoin:round;stroke-miterlimit:4;stroke-dasharray:none;stroke-opacity:1;paint-order:markers stroke fill" />
    <g
       id="text20869"
       style="font-style:normal;font-weight:normal;font-size:45.86111069px;line-height:1.25;font-family:sans-serif;letter-spacing:0px;word-spacing:0px;fill:#ffffff;fill-opacity:1;stroke:none;stroke-width:0.65070152"
       aria-label="CIn">
      <path
         id="path22083"
         style="font-style:normal;font-variant:normal;font-weight:normal;font-stretch:normal;font-size:45.86111069px;font-family:'Fira Sans';-inkscape-font-specification:'Fira Sans';text-align:start;letter-spacing:-3.25350761px;text-anchor:start;fill:#ffffff;fill-opacity:1;stroke-width:0.65070152"
         d="m -61.912234,124.66475 q 2.843389,0 4.769555,0.73377 1.972028,0.73378 3.989917,2.38478 l -2.384778,2.79753 q -2.88925,-2.33892 -6.099527,-2.33892 -3.944056,0 -6.374695,3.02684 -2.384778,3.02683 -2.384778,9.72255 0,6.51228 2.384778,9.63084 2.384778,3.07269 6.328833,3.07269 2.017889,0 3.531306,-0.68792 1.513417,-0.68791 3.210278,-1.92616 l 2.155472,2.75166 q -1.467556,1.51342 -3.760611,2.52236 -2.293056,1.00895 -5.274028,1.00895 -3.852333,0 -6.879166,-1.88031 -2.980973,-1.92616 -4.677834,-5.59505 -1.651,-3.71475 -1.651,-8.89706 0,-5.1823 1.742722,-8.85119 1.742723,-3.71475 4.723695,-5.59506 2.980972,-1.8803 6.649861,-1.8803 z" />
      <path
         id="path22085"
         style="font-style:normal;font-variant:normal;font-weight:normal;font-stretch:normal;font-size:45.86111069px;font-family:'Fira Sans';-inkscape-font-specification:'Fira Sans';text-align:start;letter-spacing:-3.25350761px;text-anchor:start;fill:#ffffff;fill-opacity:1;stroke-width:0.65070152"
         d="m -46.154162,125.21508 v 31.59831 h -4.356805 v -31.59831 z" />
      <path
         id="path22087"
         style="font-style:normal;font-variant:normal;font-weight:normal;font-stretch:normal;font-size:45.86111069px;font-family:'Fira Sans';-inkscape-font-specification:'Fira Sans';text-align:start;letter-spacing:-3.25350761px;text-anchor:start;fill:#ffffff;fill-opacity:1;stroke-width:0.65070152"
         d="m -29.094781,132.09425 q 3.302,0 5.136444,1.97202 1.880306,1.97203 1.880306,5.41162 v 17.3355 h -4.219222 v -16.73931 q 0,-2.56822 -0.963084,-3.62303 -0.963083,-1.0548 -2.843388,-1.0548 -1.926167,0 -3.393723,1.10066 -1.467555,1.10067 -2.751666,3.16442 v 17.15206 h -4.219222 v -24.16881 h 3.623027 l 0.366889,3.57717 q 1.284111,-1.92617 3.164417,-3.02684 1.926167,-1.10066 4.219222,-1.10066 z" />
    </g>
    <g
       style="fill:#fb6b02;fill-opacity:1"
       clip-path="url(#clipPath21155)"
       transform="matrix(1.9380161,0,0,1.9380161,-8068.3216,5623.1445)"
       id="g21092">
      <path
         style="opacity:0.98999999;fill:#fb6b02;fill-opacity:1;stroke:none;stroke-width:3.89768028;stroke-linecap:round;stroke-linejoin:round;stroke-miterlimit:4;stroke-dasharray:none;stroke-opacity:1;paint-order:markers stroke fill"
         d="m 4063.9071,-2847.513 c -2.1783,-2.3095 -2.272,-3.656 -0.4508,-6.4712 1.225,-1.8939 5.2368,-4.6648 7.4273,-5.1302 1.0266,-0.2181 2.2889,-0.7684 2.8057,-1.2232 1.371,-1.2065 6.7513,-2.943 10.5063,-3.3904 2.6678,-0.318 3.4896,-0.1974 4.5191,0.6639 1.1136,0.9313 1.1941,1.3292 0.7003,3.4594 -0.8067,3.4795 -3.8819,8.5209 -6.0748,9.9581 -3.3848,2.2188 -10.0986,4.2976 -13.88,4.2976 -3.293,0 -3.6396,-0.1352 -5.5531,-2.164 z"
         id="path21086" />
      <path
         style="opacity:0.98999999;fill:#fb6b02;fill-opacity:1;stroke:none;stroke-width:3.89768028;stroke-linecap:round;stroke-linejoin:round;stroke-miterlimit:4;stroke-dasharray:none;stroke-opacity:1;paint-order:markers stroke fill"
         d="m 4075.0498,-2795.021 c -3.9603,-0.6503 -8.9602,-3.4414 -10.6866,-5.9658 -2.6696,-3.9031 -7.9547,-9.1803 -9.6102,-9.5957 -1.2707,-0.319 -2.7238,0.2525 -7.3252,2.8806 -3.157,1.8031 -6.0164,3.2784 -6.3542,3.2784 -0.3379,0 -1.3073,0.5453 -2.1545,1.2118 l -1.5407,1.2118 v -4.2812 -4.2813 l 4.1082,-2.3383 c 2.2592,-1.2864 5.9639,-3.7201 8.2322,-5.4081 2.2683,-1.6883 4.3987,-3.0695 4.7342,-3.0695 0.3355,0 2.1516,-1.0525 4.036,-2.3386 2.9408,-2.0074 3.8676,-2.3387 6.542,-2.3387 3.7595,0 8.8435,1.4224 10.304,2.8829 0.608,0.6081 1.3562,2.7403 1.7449,4.9737 0.7893,4.5315 2.8596,9.5059 4.5995,11.0503 3.062,2.7186 8.505,2.2363 15.4445,-1.3679 5.6132,-2.9154 6.5929,-2.9977 6.0955,-0.5109 -0.2011,1.0049 -0.3654,2.8191 -0.3654,4.0315 0,1.9968 -0.2677,2.3764 -2.8366,4.0251 -3.4917,2.2405 -9.6168,4.3661 -16.0604,5.5737 -5.1901,0.9723 -5.2629,0.9755 -8.9128,0.3762 z"
         id="path21088" />
    </g>
  </g>
</svg>
