<?xml version="1.0" encoding="UTF-8" standalone="no"?>
<svg
   xmlns:dc="http://purl.org/dc/elements/1.1/"
   xmlns:cc="http://creativecommons.org/ns#"
   xmlns:rdf="http://www.w3.org/1999/02/22-rdf-syntax-ns#"
   xmlns:svg="http://www.w3.org/2000/svg"
   xmlns="http://www.w3.org/2000/svg"
   id="svg15280"
   version="1.1"
   viewBox="0 0 336.75957 106.90283"
   height="404.04221"
   width="1272.7921">
  <defs
     id="defs15274">
    <clipPath
       id="clipPath15903"
       clipPathUnits="userSpaceOnUse">
      <rect
         y="-68.448967"
         x="-352.54572"
         height="381.61688"
         width="582.08331"
         id="rect15905"
         style="opacity:1;fill:#fb6b02;fill-opacity:1;stroke:none;stroke-width:12.42083359;stroke-linecap:round;stroke-linejoin:round;stroke-miterlimit:4;stroke-dasharray:none;stroke-opacity:1;paint-order:stroke fill markers" />
    </clipPath>
    <clipPath
       clipPathUnits="userSpaceOnUse"
       id="clipPath7754-0">
      <path
         d="M 136.6999,79.17835 154.765,51.34518 c 1.7071,-2.63012 0.9588,-6.14611 -1.6713,-7.85318 -2.2481,-1.45912 -5.2104,-1.1474 -7.1055,0.74772 L 116.2553,73.9726 c -12.4967,12.49678 -12.4967,32.7581 0,45.2548 l 29.7329,29.7329 c 2.2172,2.2172 5.8119,2.2172 8.0291,0 1.8951,-1.8951 2.2068,-4.8574 0.7477,-7.1054 l -18.0651,-27.8332 c -6.8775,-10.5963 -6.8775,-24.24704 0,-34.84335 z m 13.6785,17.7965 c 0,8.83655 7.1634,16.00005 16,16.00005 8.8366,0 16,-7.1635 16,-16.00005 0,-8.83656 -7.1634,-16 -16,-16 -8.8366,0 -16,7.16344 -16,16 z m -71.0531,50.21845 15.07168,29.5614 c 1.4242,2.7934 4.8433,3.9034 7.63672,2.4792 2.3877,-1.2174 3.5989,-3.9386 2.9052,-6.5274 L 94.05588,132.0906 C 89.48176,115.0197 71.93498,104.8891 54.86407,109.4632 l -40.61588,10.883 c -3.0287,0.8115 -4.826067,3.9247 -4.01453,6.9534 0.69366,2.5887 3.1032,4.3398 5.77965,4.2002 l 33.13677,-1.7282 c 12.61543,-0.6579 24.4373,6.1674 30.17522,17.4217 z m -22.25147,2.9476 c -7.65268,-4.4182 -17.43812,-1.7962 -21.8564,5.8565 -4.41828,7.6526 -1.79628,17.4381 5.8564,21.8564 7.65269,4.4182 17.43813,1.7962 21.85641,-5.8564 4.41828,-7.6527 1.79628,-17.4382 -5.85641,-21.8565 z M 49.10994,63.49794 15.97318,61.76971 c -3.13129,-0.16331 -5.80209,2.24271 -5.9654,5.374 -0.139587,2.67646 1.6115,5.086 4.20028,5.77966 l 40.61587,10.88299 c 17.07091,4.57413 34.6177,-5.55651 39.19185,-22.62742 L 104.8988,20.56307 c 0.8115,-3.02871 -0.9859,-6.14184 -4.0146,-6.95338 -2.58872,-0.69366 -5.31002,0.51752 -6.52732,2.90519 L 79.28516,46.07628 C 73.54724,57.33054 61.72538,64.1559 49.10994,63.49794 Z M 57.68293,42.75379 C 65.33561,38.33551 67.95761,28.55006 63.53933,20.89738 59.12105,13.2447 49.33561,10.62269 41.68293,15.04097 34.03024,19.45925 31.40824,29.2447 35.82652,36.89738 c 4.41828,7.65268 14.20372,10.27468 21.85641,5.85641 z"
         id="path7752-8"
         style="clip-rule:evenodd" />
    </clipPath>
    <clipPath
       clipPathUnits="userSpaceOnUse"
       id="clipPath7760-1">
      <path
         d="M 0,0 H 192 V 192 H 0 Z"
         id="path7758-6" />
    </clipPath>
    <clipPath
       clipPathUnits="userSpaceOnUse"
       id="clipPath7766-2">
      <path
         d="M 5,7 H 188 V 185 H 5 Z"
         id="path7764-1" />
    </clipPath>
    <clipPath
       clipPathUnits="userSpaceOnUse"
       id="clipPath7770-1">
      <path
         d="M 9,10 H 183 V 183 H 9 Z"
         id="path7768-4" />
    </clipPath>
    <clipPath
       id="clipPath21155"
       clipPathUnits="userSpaceOnUse">
      <rect
         ry="0"
         rx="0"
         y="-2856.3135"
         x="4051.2505"
         height="55.160954"
         width="173.76511"
         id="rect21157"
         style="opacity:1;fill:#ffffff;fill-opacity:1;stroke:none;stroke-width:0.51280051;stroke-linecap:round;stroke-linejoin:round;stroke-miterlimit:4;stroke-dasharray:none;stroke-opacity:1;paint-order:markers stroke fill" />
    </clipPath>
    <clipPath
       id="clipPath21223"
       clipPathUnits="userSpaceOnUse">
      <rect
         style="opacity:1;fill:#fb6b02;fill-opacity:1;stroke:none;stroke-width:0.99381566;stroke-linecap:round;stroke-linejoin:round;stroke-miterlimit:4;stroke-dasharray:none;stroke-opacity:1;paint-order:markers stroke fill"
         id="rect21225"
         width="336.75958"
         height="106.90282"
         x="4408.5566"
         y="-2878.1082"
         rx="0"
         ry="0" />
    </clipPath>
    <clipPath
       id="clipPath21237"
       clipPathUnits="userSpaceOnUse">
      <rect
         ry="0"
         rx="0"
         y="-2878.1082"
         x="4812.856"
         height="106.90282"
         width="336.75958"
         id="rect21239"
         style="opacity:1;fill:#fb6b02;fill-opacity:1;stroke:none;stroke-width:0.99381566;stroke-linecap:round;stroke-linejoin:round;stroke-miterlimit:4;stroke-dasharray:none;stroke-opacity:1;paint-order:markers stroke fill" />
    </clipPath>
    <clipPath
       id="clipPath21159"
       clipPathUnits="userSpaceOnUse">
      <rect
         style="opacity:1;fill:#ffffff;fill-opacity:1;stroke:none;stroke-width:0.99381566;stroke-linecap:round;stroke-linejoin:round;stroke-miterlimit:4;stroke-dasharray:none;stroke-opacity:1;paint-order:markers stroke fill"
         id="rect21161"
         width="336.75958"
         height="106.90282"
         x="4008.3745"
         y="-2721.1167"
         rx="0"
         ry="0" />
    </clipPath>
  </defs>
  <metadata
     id="metadata15277">
    <rdf:RDF>
      <cc:Work
         rdf:about="">
        <dc:format>image/svg+xml</dc:format>
        <dc:type
           rdf:resource="http://purl.org/dc/dcmitype/StillImage" />
        <dc:title></dc:title>
      </cc:Work>
    </rdf:RDF>
  </metadata>
  <g
     transform="translate(200.89702,-82.437846)"
     id="layer1">
    <path
       id="rect20895"
       d="M -200.89702,82.437866 H 135.86256 V 189.34068 h -336.75958 z"
       style="opacity:1;fill:#fc9b01;fill-opacity:1;stroke:none;stroke-width:0.99381572;stroke-linecap:round;stroke-linejoin:round;stroke-miterlimit:4;stroke-dasharray:none;stroke-opacity:1;paint-order:markers stroke fill" />
    <g
       id="text20899"
       style="font-style:normal;font-weight:normal;font-size:45.86111069px;line-height:1.25;font-family:sans-serif;letter-spacing:0px;word-spacing:0px;fill:#ffffff;fill-opacity:1;stroke:none;stroke-width:0.65070152"
       aria-label="SIG@">
      <path
         id="path22227"
         style="font-style:normal;font-variant:normal;font-weight:normal;font-stretch:normal;font-size:45.86111069px;font-family:'Fira Sans';-inkscape-font-specification:'Fira Sans';text-align:start;letter-spacing:-3.25350761px;text-anchor:start;fill:#ffffff;fill-opacity:1;stroke-width:0.65070152"
         d="m -71.335815,119.53973 q 3.164416,0 5.411611,0.91722 2.247194,0.87136 4.356805,2.75167 l -2.384777,2.65994 q -1.788584,-1.42169 -3.531306,-2.06375 -1.696861,-0.68791 -3.668889,-0.68791 -2.4765,0 -4.081639,1.14653 -1.605139,1.14652 -1.605139,3.34786 0,1.37583 0.550334,2.33891 0.550333,0.91723 2.017889,1.69686 1.513416,0.77964 4.356805,1.651 2.980972,0.91723 4.953,1.97203 1.972028,1.05481 3.164417,2.93511 1.23825,1.83445 1.23825,4.67784 0,2.75166 -1.375834,4.86127 -1.329972,2.10962 -3.898194,3.302 -2.522361,1.19239 -6.007805,1.19239 -6.558139,0 -10.7315,-4.08164 l 2.384777,-2.65994 q 1.926167,1.55928 3.898195,2.38478 1.972028,0.77964 4.402666,0.77964 2.935112,0 4.861278,-1.4217 1.926167,-1.46755 1.926167,-4.21922 0,-1.55928 -0.596195,-2.56822 -0.596194,-1.05481 -2.06375,-1.88031 -1.421694,-0.8255 -4.173361,-1.651 -4.861277,-1.46755 -7.108472,-3.5313 -2.247194,-2.06375 -2.247194,-5.59506 0,-2.38478 1.23825,-4.26508 1.284111,-1.88031 3.531305,-2.93511 2.293056,-1.05481 5.182306,-1.05481 z" />
      <path
         id="path22229"
         style="font-style:normal;font-variant:normal;font-weight:normal;font-stretch:normal;font-size:45.86111069px;font-family:'Fira Sans';-inkscape-font-specification:'Fira Sans';text-align:start;letter-spacing:-3.25350761px;text-anchor:start;fill:#ffffff;fill-opacity:1;stroke-width:0.65070152"
         d="m -53.038183,120.09006 v 31.59831 h -4.356806 v -31.59831 z" />
      <path
         id="path22231"
         style="font-style:normal;font-variant:normal;font-weight:normal;font-stretch:normal;font-size:45.86111069px;font-family:'Fira Sans';-inkscape-font-specification:'Fira Sans';text-align:start;letter-spacing:-3.25350761px;text-anchor:start;fill:#ffffff;fill-opacity:1;stroke-width:0.65070152"
         d="m -35.47433,119.53973 q 2.980972,0 5.136444,0.87136 2.201333,0.8255 4.356805,2.61409 l -2.568222,2.65994 q -1.696861,-1.37583 -3.256139,-1.97203 -1.559277,-0.59619 -3.668888,-0.59619 -2.430639,0 -4.494389,1.32997 -2.017889,1.28411 -3.302,4.17336 -1.284111,2.84339 -1.284111,7.24606 0,6.64986 2.155472,9.72255 2.201333,3.0727 6.466416,3.0727 3.485445,0 6.007806,-1.4217 v -9.53911 h -5.595056 l -0.504472,-3.5313 h 10.410472 v 15.27175 q -4.907139,2.79752 -10.31875,2.79752 -6.237111,0 -9.768416,-4.17336 -3.485445,-4.17336 -3.485445,-12.19905 0,-5.13645 1.834445,-8.80534 1.880305,-3.71475 4.998861,-5.59505 3.164417,-1.92617 6.879167,-1.92617 z" />
      <path
         id="path22233"
         style="font-style:normal;font-variant:normal;font-weight:normal;font-stretch:normal;font-size:45.86111069px;font-family:'Fira Sans';-inkscape-font-specification:'Fira Sans';text-align:start;letter-spacing:-3.25350761px;text-anchor:start;fill:#ffffff;fill-opacity:1;stroke-width:0.65070152"
         d="m -1.9078137,119.53973 q 6.1453888,0 10.5480555,2.4765 4.4026662,2.43064 6.6498612,6.55814 2.247194,4.1275 2.247194,9.03464 0,5.96194 -2.293055,9.81428 -2.293056,3.85233 -6.7415836,3.85233 -2.5682222,0 -4.0357777,-1.42169 -1.4216944,-1.4217 -1.8344444,-3.302 -0.8713611,2.01788 -2.52236111,3.34786 -1.60513889,1.28411 -4.08163889,1.28411 -3.6688888,0 -5.824361,-2.75167 -2.1096113,-2.75167 -2.1096113,-7.33778 0,-5.7785 2.7516668,-8.85119 2.7516667,-3.11856 7.2460555,-3.11856 1.92616667,0 3.6230278,0.41275 1.6968611,0.41275 3.5771666,1.4217 v 11.87803 q 0,2.84338 0.7796389,4.03577 0.7796389,1.14653 2.3389166,1.14653 4.8612778,0 4.8612778,-10.31875 0,-4.44853 -1.742722,-7.75053 -1.7427225,-3.302 -5.1364446,-5.09058 -3.3937222,-1.83444 -8.3008611,-1.83444 -5.0447222,0 -8.8511943,2.29305 -3.760611,2.2472 -5.7785,6.28297 -2.017889,3.98992 -2.017889,9.0805 0,5.09059 1.926167,9.03464 1.972028,3.8982 5.732639,6.05367 3.7606107,2.20133 8.9887773,2.20133 4.3568055,0 8.8053333,-1.55928 l 1.1465277,3.25614 q -2.5682222,0.91723 -4.8612777,1.32998 -2.24719442,0.45861 -5.1364444,0.45861 -6.1453888,0 -10.8690832,-2.56823 -4.723694,-2.52236 -7.383639,-7.24605 -2.614083,-4.7237 -2.614083,-10.96081 0,-5.96194 2.614083,-10.77736 2.659945,-4.81541 7.4295,-7.56708 4.7695556,-2.79753 10.8690833,-2.79753 z m -1.5592777,28.57147 q 3.43958326,0 4.9529999,-3.94405 v -11.3277 q -1.51341664,-0.68791 -3.2561389,-0.68791 -6.0078055,0 -6.0078055,8.94291 0,3.43959 1.1006667,5.22817 1.1006667,1.78858 3.2102778,1.78858 z" />
    </g>
    <path
       clip-path="url(#clipPath21159)"
       id="path6221-5"
       d="m 4049.9453,-2643.703 c 5.3157,0 9.8456,-1.958 13.8489,-5.8396 3.8737,-4.0033 5.8397,-8.5332 5.8397,-13.849 0,-5.3131 -1.958,-9.843 -5.8397,-13.8463 -4.0033,-3.871 -8.5332,-5.8396 -13.8489,-5.8396 -5.3158,0 -9.843,1.958 -13.8437,5.8396 -3.8737,4.0033 -5.8397,8.5332 -5.8397,13.8463 0,5.3158 1.958,9.8457 5.8397,13.849 4.0033,3.871 8.5279,5.8396 13.8437,5.8396 m 0,-85.3111 c 18.0481,0 33.4687,6.562 46.2646,19.3579 12.7985,12.7958 19.3605,28.2192 19.3605,46.2646 v 9.5176 c 0,6.5619 -2.302,12.1396 -6.562,16.733 -4.5934,4.3976 -9.8429,6.562 -16.4076,6.562 -7.8744,0 -14.3702,-3.281 -19.2943,-9.843 -6.5594,6.562 -14.3041,9.843 -23.3612,9.843 -8.991,0 -16.7331,-3.281 -23.229,-9.581 -6.3,-6.4959 -9.581,-14.1744 -9.581,-23.2316 0,-8.991 3.281,-16.733 9.581,-23.2289 6.4959,-6.3 14.238,-9.581 23.229,-9.581 9.0571,0 16.7357,3.281 23.2315,9.581 6.3,6.4959 9.581,14.2379 9.581,23.2289 v 9.5176 c 0,2.6883 1.032,5.0537 3.0217,7.0858 1.958,2.0374 4.2653,3.0852 6.824,3.0852 2.7571,0 5.0538,-1.0319 7.0224,-3.0852 1.958,-2.0373 2.8232,-4.3975 2.8232,-7.0858 v -9.5176 c 0,-14.3702 -5.0538,-26.7057 -15.4233,-37.0752 -10.3669,-10.3695 -22.705,-15.4233 -37.0779,-15.4233 -14.3702,0 -26.7083,5.0538 -37.0779,15.4233 -10.3695,10.3695 -15.4206,22.705 -15.4206,37.0752 0,14.3729 5.0511,26.711 15.4206,37.0779 10.3669,10.3695 22.7077,15.4233 37.0779,15.4233 h 32.8126 v 13.124 h -32.8126 c -18.0455,0 -33.4688,-6.562 -46.2647,-19.3605 -12.7958,-12.7959 -19.3578,-28.2166 -19.3578,-46.2647 0,-18.0454 6.562,-33.4688 19.3578,-46.2646 12.7959,-12.7959 28.2192,-19.3579 46.2621,-19.3579 z"
       style="fill:#fb6b02;fill-opacity:1;stroke-width:6.5624032"
       transform="translate(-4209.2715,2803.5548)" />
  </g>
</svg>
