<?xml version="1.0" encoding="UTF-8" standalone="no"?>
<svg
   xmlns:dc="http://purl.org/dc/elements/1.1/"
   xmlns:cc="http://creativecommons.org/ns#"
   xmlns:rdf="http://www.w3.org/1999/02/22-rdf-syntax-ns#"
   xmlns:svg="http://www.w3.org/2000/svg"
   xmlns="http://www.w3.org/2000/svg"
   id="svg15280"
   version="1.1"
   viewBox="0 0 446.89609 61.900691"
   height="233.95537"
   width="1689.0562">
  <defs
     id="defs15274">
    <clipPath
       id="clipPath15903"
       clipPathUnits="userSpaceOnUse">
      <rect
         y="-68.448967"
         x="-352.54572"
         height="381.61688"
         width="582.08331"
         id="rect15905"
         style="opacity:1;fill:#fb6b02;fill-opacity:1;stroke:none;stroke-width:12.42083359;stroke-linecap:round;stroke-linejoin:round;stroke-miterlimit:4;stroke-dasharray:none;stroke-opacity:1;paint-order:stroke fill markers" />
    </clipPath>
    <clipPath
       clipPathUnits="userSpaceOnUse"
       id="clipPath7754-0">
      <path
         d="M 136.6999,79.17835 154.765,51.34518 c 1.7071,-2.63012 0.9588,-6.14611 -1.6713,-7.85318 -2.2481,-1.45912 -5.2104,-1.1474 -7.1055,0.74772 L 116.2553,73.9726 c -12.4967,12.49678 -12.4967,32.7581 0,45.2548 l 29.7329,29.7329 c 2.2172,2.2172 5.8119,2.2172 8.0291,0 1.8951,-1.8951 2.2068,-4.8574 0.7477,-7.1054 l -18.0651,-27.8332 c -6.8775,-10.5963 -6.8775,-24.24704 0,-34.84335 z m 13.6785,17.7965 c 0,8.83655 7.1634,16.00005 16,16.00005 8.8366,0 16,-7.1635 16,-16.00005 0,-8.83656 -7.1634,-16 -16,-16 -8.8366,0 -16,7.16344 -16,16 z m -71.0531,50.21845 15.07168,29.5614 c 1.4242,2.7934 4.8433,3.9034 7.63672,2.4792 2.3877,-1.2174 3.5989,-3.9386 2.9052,-6.5274 L 94.05588,132.0906 C 89.48176,115.0197 71.93498,104.8891 54.86407,109.4632 l -40.61588,10.883 c -3.0287,0.8115 -4.826067,3.9247 -4.01453,6.9534 0.69366,2.5887 3.1032,4.3398 5.77965,4.2002 l 33.13677,-1.7282 c 12.61543,-0.6579 24.4373,6.1674 30.17522,17.4217 z m -22.25147,2.9476 c -7.65268,-4.4182 -17.43812,-1.7962 -21.8564,5.8565 -4.41828,7.6526 -1.79628,17.4381 5.8564,21.8564 7.65269,4.4182 17.43813,1.7962 21.85641,-5.8564 4.41828,-7.6527 1.79628,-17.4382 -5.85641,-21.8565 z M 49.10994,63.49794 15.97318,61.76971 c -3.13129,-0.16331 -5.80209,2.24271 -5.9654,5.374 -0.139587,2.67646 1.6115,5.086 4.20028,5.77966 l 40.61587,10.88299 c 17.07091,4.57413 34.6177,-5.55651 39.19185,-22.62742 L 104.8988,20.56307 c 0.8115,-3.02871 -0.9859,-6.14184 -4.0146,-6.95338 -2.58872,-0.69366 -5.31002,0.51752 -6.52732,2.90519 L 79.28516,46.07628 C 73.54724,57.33054 61.72538,64.1559 49.10994,63.49794 Z M 57.68293,42.75379 C 65.33561,38.33551 67.95761,28.55006 63.53933,20.89738 59.12105,13.2447 49.33561,10.62269 41.68293,15.04097 34.03024,19.45925 31.40824,29.2447 35.82652,36.89738 c 4.41828,7.65268 14.20372,10.27468 21.85641,5.85641 z"
         id="path7752-8"
         style="clip-rule:evenodd" />
    </clipPath>
    <clipPath
       clipPathUnits="userSpaceOnUse"
       id="clipPath7760-1">
      <path
         d="M 0,0 H 192 V 192 H 0 Z"
         id="path7758-6" />
    </clipPath>
    <clipPath
       clipPathUnits="userSpaceOnUse"
       id="clipPath7766-2">
      <path
         d="M 5,7 H 188 V 185 H 5 Z"
         id="path7764-1" />
    </clipPath>
    <clipPath
       clipPathUnits="userSpaceOnUse"
       id="clipPath7770-1">
      <path
         d="M 9,10 H 183 V 183 H 9 Z"
         id="path7768-4" />
    </clipPath>
  </defs>
  <metadata
     id="metadata15277">
    <rdf:RDF>
      <cc:Work
         rdf:about="">
        <dc:format>image/svg+xml</dc:format>
        <dc:type
           rdf:resource="http://purl.org/dc/dcmitype/StillImage" />
        <dc:title></dc:title>
      </cc:Work>
    </rdf:RDF>
  </metadata>
  <g
     transform="translate(288.94626,-87.563009)"
     id="layer1">
    <g
       style="fill:#ffffff;fill-opacity:1"
       transform="translate(-2155.7928,926.92671)"
       id="g15937">
      <text
         id="text15911"
         y="-778.13165"
         x="1862.6774"
         style="font-style:normal;font-weight:normal;font-size:39.3318367px;line-height:1.25;font-family:sans-serif;letter-spacing:-3.82085538px;word-spacing:0px;fill:#ffffff;fill-opacity:1;stroke:none;stroke-width:0.46091992"
         xml:space="preserve"><tspan
           style="font-style:normal;font-variant:normal;font-weight:bold;font-stretch:normal;font-family:'Fira Sans';-inkscape-font-specification:'Fira Sans Bold';letter-spacing:-1.69721496px;fill:#ffffff;stroke-width:0.46091992;fill-opacity:1"
           y="-778.13165"
           x="1862.6774"
           id="tspan15909"><tspan
   style="font-style:normal;font-variant:normal;font-weight:300;font-stretch:normal;font-family:'Fira Sans';-inkscape-font-specification:'Fira Sans Light';fill:#ffffff;fill-opacity:1"
   id="tspan15907">manual de </tspan>sobrevivência</tspan></text>
      <g
         style="fill:#ffffff;fill-opacity:1"
         id="g15935"
         transform="matrix(0.22373782,0,0,-0.22373782,2272.9377,-799.09089)">
        <g
           style="fill:#ffffff;fill-opacity:1"
           id="g15913" />
        <g
           style="fill:#ffffff;fill-opacity:1"
           id="g15933">
          <g
             style="fill:#ffffff;fill-opacity:1"
             id="g15931"
             clip-path="url(#clipPath7754-0)">
            <g
               style="fill:#ffffff;fill-opacity:1"
               id="g15929"
               clip-path="url(#clipPath7760-1)">
              <g
                 style="fill:#ffffff;fill-opacity:1"
                 id="g15915" />
              <g
                 style="fill:#ffffff;fill-opacity:1"
                 id="g15927">
                <g
                   style="fill:#ffffff;fill-opacity:1"
                   clip-path="url(#clipPath7766-2)"
                   id="g15925">
                  <g
                     style="fill:#ffffff;fill-opacity:1"
                     id="g15917" />
                  <g
                     style="fill:#ffffff;fill-opacity:1"
                     id="g15923">
                    <g
                       style="fill:#ffffff;fill-opacity:1"
                       clip-path="url(#clipPath7770-1)"
                       id="g15921">
                      <path
                         d="M 5,185 H 187.3784 V 7.894703 H 5 Z"
                         style="fill:#ffffff;fill-opacity:1;fill-rule:nonzero;stroke:none"
                         id="path15919" />
                    </g>
                  </g>
                </g>
              </g>
            </g>
          </g>
        </g>
      </g>
    </g>
  </g>
</svg>
