<?xml version="1.0" encoding="UTF-8" standalone="no"?>
<svg
   xmlns:dc="http://purl.org/dc/elements/1.1/"
   xmlns:cc="http://creativecommons.org/ns#"
   xmlns:rdf="http://www.w3.org/1999/02/22-rdf-syntax-ns#"
   xmlns:svg="http://www.w3.org/2000/svg"
   xmlns="http://www.w3.org/2000/svg"
   width="1689.0562"
   height="233.95537"
   viewBox="0 0 446.89609 61.900691"
   version="1.1"
   id="svg15280">
  <defs
     id="defs15274">
    <clipPath
       clipPathUnits="userSpaceOnUse"
       id="clipPath15903">
      <rect
         style="opacity:1;fill:#fb6b02;fill-opacity:1;stroke:none;stroke-width:12.42083359;stroke-linecap:round;stroke-linejoin:round;stroke-miterlimit:4;stroke-dasharray:none;stroke-opacity:1;paint-order:stroke fill markers"
         id="rect15905"
         width="582.08331"
         height="381.61688"
         x="-352.54572"
         y="-68.448967" />
    </clipPath>
    <clipPath
       id="clipPath7754-0"
       clipPathUnits="userSpaceOnUse">
      <path
         style="clip-rule:evenodd"
         id="path7752-8"
         d="M 136.6999,79.17835 154.765,51.34518 c 1.7071,-2.63012 0.9588,-6.14611 -1.6713,-7.85318 -2.2481,-1.45912 -5.2104,-1.1474 -7.1055,0.74772 L 116.2553,73.9726 c -12.4967,12.49678 -12.4967,32.7581 0,45.2548 l 29.7329,29.7329 c 2.2172,2.2172 5.8119,2.2172 8.0291,0 1.8951,-1.8951 2.2068,-4.8574 0.7477,-7.1054 l -18.0651,-27.8332 c -6.8775,-10.5963 -6.8775,-24.24704 0,-34.84335 z m 13.6785,17.7965 c 0,8.83655 7.1634,16.00005 16,16.00005 8.8366,0 16,-7.1635 16,-16.00005 0,-8.83656 -7.1634,-16 -16,-16 -8.8366,0 -16,7.16344 -16,16 z m -71.0531,50.21845 15.07168,29.5614 c 1.4242,2.7934 4.8433,3.9034 7.63672,2.4792 2.3877,-1.2174 3.5989,-3.9386 2.9052,-6.5274 L 94.05588,132.0906 C 89.48176,115.0197 71.93498,104.8891 54.86407,109.4632 l -40.61588,10.883 c -3.0287,0.8115 -4.826067,3.9247 -4.01453,6.9534 0.69366,2.5887 3.1032,4.3398 5.77965,4.2002 l 33.13677,-1.7282 c 12.61543,-0.6579 24.4373,6.1674 30.17522,17.4217 z m -22.25147,2.9476 c -7.65268,-4.4182 -17.43812,-1.7962 -21.8564,5.8565 -4.41828,7.6526 -1.79628,17.4381 5.8564,21.8564 7.65269,4.4182 17.43813,1.7962 21.85641,-5.8564 4.41828,-7.6527 1.79628,-17.4382 -5.85641,-21.8565 z M 49.10994,63.49794 15.97318,61.76971 c -3.13129,-0.16331 -5.80209,2.24271 -5.9654,5.374 -0.139587,2.67646 1.6115,5.086 4.20028,5.77966 l 40.61587,10.88299 c 17.07091,4.57413 34.6177,-5.55651 39.19185,-22.62742 L 104.8988,20.56307 c 0.8115,-3.02871 -0.9859,-6.14184 -4.0146,-6.95338 -2.58872,-0.69366 -5.31002,0.51752 -6.52732,2.90519 L 79.28516,46.07628 C 73.54724,57.33054 61.72538,64.1559 49.10994,63.49794 Z M 57.68293,42.75379 C 65.33561,38.33551 67.95761,28.55006 63.53933,20.89738 59.12105,13.2447 49.33561,10.62269 41.68293,15.04097 34.03024,19.45925 31.40824,29.2447 35.82652,36.89738 c 4.41828,7.65268 14.20372,10.27468 21.85641,5.85641 z" />
    </clipPath>
    <clipPath
       id="clipPath7760-1"
       clipPathUnits="userSpaceOnUse">
      <path
         id="path7758-6"
         d="M 0,0 H 192 V 192 H 0 Z" />
    </clipPath>
    <clipPath
       id="clipPath7766-2"
       clipPathUnits="userSpaceOnUse">
      <path
         id="path7764-1"
         d="M 5,7 H 188 V 185 H 5 Z" />
    </clipPath>
    <clipPath
       id="clipPath7770-1"
       clipPathUnits="userSpaceOnUse">
      <path
         id="path7768-4"
         d="M 9,10 H 183 V 183 H 9 Z" />
    </clipPath>
  </defs>
  <metadata
     id="metadata15277">
    <rdf:RDF>
      <cc:Work
         rdf:about="">
        <dc:format>image/svg+xml</dc:format>
        <dc:type
           rdf:resource="http://purl.org/dc/dcmitype/StillImage" />
        <dc:title></dc:title>
      </cc:Work>
    </rdf:RDF>
  </metadata>
  <g
     id="layer1"
     transform="translate(288.94626,-87.563009)">
    <g
       id="g15937"
       transform="translate(-2155.7928,926.92671)"
       style="fill:#ffffff;fill-opacity:1">
      <g
         id="text15911"
         style="font-style:normal;font-weight:normal;font-size:39.3318367px;line-height:1.25;font-family:sans-serif;letter-spacing:-3.82085538px;word-spacing:0px;fill:#ffffff;fill-opacity:1;stroke:none;stroke-width:0.46091992"
         aria-label="manual de sobrevivência">
        <path
           id="path839"
           style="font-style:normal;font-variant:normal;font-weight:300;font-stretch:normal;font-family:'Fira Sans';-inkscape-font-specification:'Fira Sans Light';fill:#ffffff;fill-opacity:1"
           d="m 1886.9058,-799.13485 q 2.4779,0 3.8938,1.69127 1.4553,1.69126 1.4553,4.60182 v 14.71011 h -2.2812 v -14.39546 q 0,-2.43857 -0.944,-3.57919 -0.9046,-1.17996 -2.5566,-1.17996 -1.7306,0 -3.1072,1.10129 -1.3766,1.1013 -2.6746,3.14655 v 14.90677 h -2.2812 v -14.39546 q 0,-2.43857 -0.944,-3.57919 -0.9046,-1.17996 -2.5565,-1.17996 -1.77,0 -3.1466,1.10129 -1.3766,1.1013 -2.6352,3.14655 v 14.90677 h -2.2813 v -20.57055 h 1.9666 l 0.1967,3.50053 q 1.1799,-1.8486 2.7926,-2.87122 1.6126,-1.06196 3.5398,-1.06196 1.9666,0 3.3039,1.10129 1.3373,1.06196 1.8093,2.98922 1.2192,-1.92726 2.8319,-2.98922 1.6519,-1.10129 3.6185,-1.10129 z" />
        <path
           id="path841"
           style="font-style:normal;font-variant:normal;font-weight:300;font-stretch:normal;font-family:'Fira Sans';-inkscape-font-specification:'Fira Sans Light';fill:#ffffff;fill-opacity:1"
           d="m 1911.5025,-782.69415 q 0,1.61261 0.3933,2.32058 0.4327,0.70798 1.3373,1.06196 l -0.5113,1.61261 q -1.4159,-0.27533 -2.2026,-1.06196 -0.7473,-0.78664 -0.9833,-2.39924 -2.1239,3.4612 -6.4111,3.4612 -2.9499,0 -4.6805,-1.65194 -1.6912,-1.69127 -1.6912,-4.48383 0,-3.18588 2.2419,-4.91648 2.2812,-1.7306 6.2931,-1.7306 h 3.9332 v -2.00592 q 0,-2.47791 -1.1013,-3.5792 -1.1013,-1.14062 -3.6579,-1.14062 -2.3599,0 -5.5851,1.17995 l -0.59,-1.7306 q 3.4612,-1.37661 6.4898,-1.37661 6.7257,0 6.7257,6.52908 z m -7.9844,3.14655 q 3.6972,0 5.7032,-3.61853 v -5.66378 h -3.5792 q -3.1466,0 -4.7985,1.21928 -1.652,1.21929 -1.652,3.65787 0,2.12391 1.1407,3.26454 1.1406,1.14062 3.1858,1.14062 z" />
        <path
           id="path843"
           style="font-style:normal;font-variant:normal;font-weight:300;font-stretch:normal;font-family:'Fira Sans';-inkscape-font-specification:'Fira Sans Light';fill:#ffffff;fill-opacity:1"
           d="m 1927.1568,-799.13485 q 2.7925,0 4.2478,1.65193 1.4946,1.65194 1.4946,4.64116 v 14.71011 h -2.2812 v -14.39546 q 0,-2.4779 -0.9833,-3.61852 -0.9833,-1.14063 -2.9106,-1.14063 -1.9666,0 -3.5005,1.10129 -1.4946,1.06196 -2.8712,3.14655 v 14.90677 h -2.2813 v -20.57055 h 1.9666 l 0.236,3.50053 q 1.2586,-1.8486 2.9892,-2.87122 1.7306,-1.06196 3.8939,-1.06196 z" />
        <path
           id="path845"
           style="font-style:normal;font-variant:normal;font-weight:300;font-stretch:normal;font-family:'Fira Sans';-inkscape-font-specification:'Fira Sans Light';fill:#ffffff;fill-opacity:1"
           d="m 1953.7779,-778.13165 h -1.9666 l -0.118,-3.65786 q -2.4386,4.09051 -6.7258,4.09051 -2.7925,0 -4.3265,-1.61261 -1.4946,-1.65194 -1.4946,-4.68049 v -14.7101 h 2.2813 v 14.47411 q 0,2.39924 0.9833,3.53987 1.0226,1.10129 3.0679,1.10129 3.5792,0 6.0177,-4.20851 v -14.90676 h 2.2813 z" />
        <path
           id="path847"
           style="font-style:normal;font-variant:normal;font-weight:300;font-stretch:normal;font-family:'Fira Sans';-inkscape-font-specification:'Fira Sans Light';fill:#ffffff;fill-opacity:1"
           d="m 1973.1674,-782.69415 q 0,1.61261 0.3934,2.32058 0.4326,0.70798 1.3372,1.06196 l -0.5113,1.61261 q -1.4159,-0.27533 -2.2026,-1.06196 -0.7473,-0.78664 -0.9833,-2.39924 -2.1239,3.4612 -6.411,3.4612 -2.9499,0 -4.6805,-1.65194 -1.6913,-1.69127 -1.6913,-4.48383 0,-3.18588 2.2419,-4.91648 2.2813,-1.7306 6.2931,-1.7306 h 3.9332 v -2.00592 q 0,-2.47791 -1.1013,-3.5792 -1.1013,-1.14062 -3.6579,-1.14062 -2.3599,0 -5.5851,1.17995 l -0.59,-1.7306 q 3.4612,-1.37661 6.4898,-1.37661 6.7257,0 6.7257,6.52908 z m -7.9843,3.14655 q 3.6972,0 5.7031,-3.61853 v -5.66378 h -3.5792 q -3.1466,0 -4.7985,1.21928 -1.6519,1.21929 -1.6519,3.65787 0,2.12391 1.1406,3.26454 1.1406,1.14062 3.1859,1.14062 z" />
        <path
           id="path849"
           style="font-style:normal;font-variant:normal;font-weight:300;font-stretch:normal;font-family:'Fira Sans';-inkscape-font-specification:'Fira Sans Light';fill:#ffffff;fill-opacity:1"
           d="m 1982.7738,-777.699 q -1.6912,0 -2.6745,-0.9833 -0.944,-0.98329 -0.944,-2.91055 v -25.48703 l 2.2812,-0.27533 v 25.68369 q 0,2.00593 1.652,2.00593 0.8259,0 1.4159,-0.27533 l 0.6293,1.69127 q -1.1013,0.55065 -2.3599,0.55065 z" />
        <path
           id="path851"
           style="font-style:normal;font-variant:normal;font-weight:300;font-stretch:normal;font-family:'Fira Sans';-inkscape-font-specification:'Fira Sans Light';fill:#ffffff;fill-opacity:1"
           d="m 2012.7525,-807.07988 v 28.94823 h -1.9666 l -0.2754,-3.14655 q -2.1239,3.5792 -6.1751,3.5792 -3.5792,0 -5.6637,-2.83189 -2.0453,-2.87123 -2.0453,-7.78771 0,-3.18588 0.944,-5.62445 0.9833,-2.43858 2.7925,-3.81519 1.8486,-1.37661 4.3265,-1.37661 3.5006,0 5.7818,2.79256 v -11.01292 z m -8.0631,27.49295 q 1.9666,0 3.3039,-0.94396 1.3766,-0.94397 2.4779,-2.87123 v -10.73759 q -2.2026,-3.10722 -5.3885,-3.10722 -2.7925,0 -4.4444,2.32058 -1.6127,2.32058 -1.5733,6.56842 0,4.24784 1.4946,6.52908 1.4946,2.24192 4.1298,2.24192 z" />
        <path
           id="path853"
           style="font-style:normal;font-variant:normal;font-weight:300;font-stretch:normal;font-family:'Fira Sans';-inkscape-font-specification:'Fira Sans Light';fill:#ffffff;fill-opacity:1"
           d="m 2034.0226,-789.1839 q 0,0.8653 -0.079,1.65194 h -13.7268 q 0.1967,4.01185 1.8879,5.97844 1.7306,1.92726 4.5232,1.92726 1.6126,0 2.8319,-0.47198 1.2586,-0.51132 2.7139,-1.57328 l 1.0619,1.45528 q -1.5339,1.25862 -3.1465,1.88793 -1.6126,0.62931 -3.5792,0.62931 -4.0905,0 -6.4111,-2.79256 -2.3206,-2.79256 -2.3206,-7.74837 0,-3.26455 0.9833,-5.70312 1.0227,-2.47791 2.8712,-3.81519 1.888,-1.37661 4.3659,-1.37661 3.9332,0 5.9784,2.67456 2.0453,2.63523 2.0453,7.27639 z m -2.2419,-0.70797 q 0,-3.4612 -1.4553,-5.38846 -1.416,-1.9666 -4.2479,-1.9666 -2.5565,0 -4.1298,1.9666 -1.5733,1.96659 -1.7306,5.97844 h 11.5636 z" />
        <path
           id="path855"
           style="font-style:normal;font-variant:normal;font-weight:bold;font-stretch:normal;font-family:'Fira Sans';-inkscape-font-specification:'Fira Sans Bold';letter-spacing:-1.69721496px;fill:#ffffff;fill-opacity:1;stroke-width:0.46091992"
           d="m 2053.6944,-799.6855 q 2.2419,0 4.2085,0.66864 1.9666,0.66864 3.4612,1.88793 l -2.2812,3.50053 q -2.5566,-1.6126 -5.1525,-1.6126 -1.2193,0 -1.8879,0.43265 -0.6293,0.39332 -0.6293,1.14062 0,0.58998 0.2753,0.9833 0.3147,0.35398 1.2193,0.7473 0.9046,0.39332 2.7926,0.94397 3.2645,0.94396 4.8378,2.4779 1.6126,1.49461 1.6126,4.16918 0,2.12392 -1.2193,3.69719 -1.2193,1.53394 -3.3432,2.35991 -2.1239,0.82597 -4.7198,0.82597 -2.6353,0 -4.9165,-0.82597 -2.2419,-0.82597 -3.8152,-2.28125 l 3.0285,-3.38253 q 2.6353,2.04525 5.5458,2.04525 1.416,0 2.2026,-0.51131 0.826,-0.51132 0.826,-1.45528 0,-0.74731 -0.3147,-1.17996 -0.3146,-0.43265 -1.2193,-0.78663 -0.9046,-0.39332 -2.8712,-0.94397 -3.1072,-0.90463 -4.6411,-2.51723 -1.534,-1.61261 -1.534,-4.01185 0,-1.80927 1.0226,-3.22521 1.062,-1.45528 2.9893,-2.28125 1.9666,-0.8653 4.5231,-0.8653 z" />
        <path
           id="path857"
           style="font-style:normal;font-variant:normal;font-weight:bold;font-stretch:normal;font-family:'Fira Sans';-inkscape-font-specification:'Fira Sans Bold';letter-spacing:-1.69721496px;fill:#ffffff;fill-opacity:1;stroke-width:0.46091992"
           d="m 2072.663,-799.6855 q 4.7985,0 7.5124,2.94989 2.7139,2.91055 2.7139,8.18102 0,3.34321 -1.2586,5.86044 -1.2193,2.47791 -3.5399,3.85452 -2.2812,1.37662 -5.4278,1.37662 -4.7591,0 -7.5124,-2.91056 -2.7139,-2.94989 -2.7139,-8.22035 0,-3.34321 1.2193,-5.82111 1.2586,-2.51724 3.5399,-3.89386 2.3206,-1.37661 5.4671,-1.37661 z m 0,4.56249 q -1.8879,0 -2.8319,1.61261 -0.9439,1.57327 -0.9439,4.91648 0,3.42187 0.9046,4.99514 0.944,1.57328 2.8712,1.57328 1.8879,0 2.8319,-1.57328 0.944,-1.6126 0.944,-4.95581 0,-3.42187 -0.944,-4.99514 -0.9046,-1.57328 -2.8319,-1.57328 z" />
        <path
           id="path859"
           style="font-style:normal;font-variant:normal;font-weight:bold;font-stretch:normal;font-family:'Fira Sans';-inkscape-font-specification:'Fira Sans Bold';letter-spacing:-1.69721496px;fill:#ffffff;fill-opacity:1;stroke-width:0.46091992"
           d="m 2096.7275,-799.6855 q 3.7366,0 5.7425,2.94989 2.0059,2.91055 2.0059,8.18102 0,3.22521 -1.0226,5.74245 -0.9833,2.51724 -2.8712,3.93318 -1.8486,1.41595 -4.4052,1.41595 -1.6913,0 -3.1072,-0.70797 -1.3766,-0.70798 -2.3599,-1.9666 l -0.3147,2.00593 h -5.5064 v -29.18423 l 6.2144,-0.66864 v 11.09158 q 0.944,-1.29795 2.3992,-2.04525 1.4946,-0.74731 3.2252,-0.74731 z m -2.3599,17.69933 q 3.6579,0 3.6579,-6.56842 0,-3.73652 -0.8653,-5.15247 -0.8653,-1.41595 -2.5172,-1.41595 -2.0846,0 -3.5399,2.43858 v 8.69233 q 0.59,0.94397 1.4159,1.49461 0.8653,0.51132 1.8486,0.51132 z" />
        <path
           id="path861"
           style="font-style:normal;font-variant:normal;font-weight:bold;font-stretch:normal;font-family:'Fira Sans';-inkscape-font-specification:'Fira Sans Bold';letter-spacing:-1.69721496px;fill:#ffffff;fill-opacity:1;stroke-width:0.46091992"
           d="m 2118.0259,-799.60684 q 1.1406,0 2.0846,0.27533 l -0.9833,6.01777 q -1.1799,-0.27532 -1.8879,-0.27532 -1.8486,0 -2.8319,1.29795 -0.944,1.25861 -1.4946,3.81518 v 10.34428 h -6.2144 v -20.88521 h 5.4277 l 0.5114,4.05118 q 0.7079,-2.16325 2.1239,-3.38254 1.4553,-1.25862 3.2645,-1.25862 z" />
        <path
           id="path863"
           style="font-style:normal;font-variant:normal;font-weight:bold;font-stretch:normal;font-family:'Fira Sans';-inkscape-font-specification:'Fira Sans Bold';letter-spacing:-1.69721496px;fill:#ffffff;fill-opacity:1;stroke-width:0.46091992"
           d="m 2137.8076,-788.98724 q 0,1.29795 -0.118,2.24191 h -12.9402 q 0.3147,2.63524 1.4946,3.6972 1.18,1.06196 3.2646,1.06196 1.2586,0 2.4385,-0.43265 1.18,-0.47199 2.5566,-1.41595 l 2.5566,3.4612 q -3.6579,2.91056 -8.1417,2.91056 -5.0738,0 -7.7877,-2.98922 -2.7139,-2.98922 -2.7139,-8.0237 0,-3.18587 1.1406,-5.70311 1.1406,-2.55657 3.3432,-4.01185 2.2026,-1.49461 5.2705,-1.49461 4.5231,0 7.0797,2.83189 2.5566,2.8319 2.5566,7.86637 z m -6.0964,-1.76993 q -0.079,-4.79849 -3.3826,-4.79849 -1.6126,0 -2.5172,1.17996 -0.8653,1.17995 -1.062,3.89385 h 6.9618 z" />
        <path
           id="path865"
           style="font-style:normal;font-variant:normal;font-weight:bold;font-stretch:normal;font-family:'Fira Sans';-inkscape-font-specification:'Fira Sans Bold';letter-spacing:-1.69721496px;fill:#ffffff;fill-opacity:1;stroke-width:0.46091992"
           d="m 2157.3071,-799.01686 -6.5684,20.88521 h -7.355 l -6.7258,-20.88521 h 6.7651 l 3.6972,16.16539 3.8545,-16.16539 z" />
        <path
           id="path867"
           style="font-style:normal;font-variant:normal;font-weight:bold;font-stretch:normal;font-family:'Fira Sans';-inkscape-font-specification:'Fira Sans Bold';letter-spacing:-1.69721496px;fill:#ffffff;fill-opacity:1;stroke-width:0.46091992"
           d="m 2164.0534,-799.01686 v 20.88521 h -6.2144 v -20.88521 z m -3.1466,-11.01291 q 1.6127,0 2.6353,1.02263 1.0619,0.98329 1.0619,2.51723 0,1.53394 -1.0619,2.55657 -1.0226,0.9833 -2.6353,0.9833 -1.6126,0 -2.6352,-0.9833 -1.0226,-1.02263 -1.0226,-2.55657 0,-1.53394 1.0226,-2.51723 1.0226,-1.02263 2.6352,-1.02263 z" />
        <path
           id="path869"
           style="font-style:normal;font-variant:normal;font-weight:bold;font-stretch:normal;font-family:'Fira Sans';-inkscape-font-specification:'Fira Sans Bold';letter-spacing:-1.69721496px;fill:#ffffff;fill-opacity:1;stroke-width:0.46091992"
           d="m 2185.1785,-799.01686 -6.5685,20.88521 h -7.355 l -6.7258,-20.88521 h 6.7651 l 3.6972,16.16539 3.8545,-16.16539 z" />
        <path
           id="path871"
           style="font-style:normal;font-variant:normal;font-weight:bold;font-stretch:normal;font-family:'Fira Sans';-inkscape-font-specification:'Fira Sans Bold';letter-spacing:-1.69721496px;fill:#ffffff;fill-opacity:1;stroke-width:0.46091992"
           d="m 2203.6136,-788.98724 q 0,1.29795 -0.118,2.24191 h -12.9401 q 0.3146,2.63524 1.4946,3.6972 1.1799,1.06196 3.2645,1.06196 1.2586,0 2.4386,-0.43265 1.1799,-0.47199 2.5566,-1.41595 l 2.5565,3.4612 q -3.6578,2.91056 -8.1417,2.91056 -5.0738,0 -7.7877,-2.98922 -2.7139,-2.98922 -2.7139,-8.0237 0,-3.18587 1.1407,-5.70311 1.1406,-2.55657 3.3432,-4.01185 2.2025,-1.49461 5.2704,-1.49461 4.5232,0 7.0798,2.83189 2.5565,2.8319 2.5565,7.86637 z m -6.0964,-1.76993 q -0.079,-4.79849 -3.3825,-4.79849 -1.6126,0 -2.5173,1.17996 -0.8653,1.17995 -1.0619,3.89385 h 6.9617 z m -8.6923,-11.76022 -2.2026,-2.55657 5.5458,-5.38846 h 3.8152 l 5.5457,5.38846 -2.2025,2.55657 -5.2312,-3.61853 z" />
        <path
           id="path873"
           style="font-style:normal;font-variant:normal;font-weight:bold;font-stretch:normal;font-family:'Fira Sans';-inkscape-font-specification:'Fira Sans Bold';letter-spacing:-1.69721496px;fill:#ffffff;fill-opacity:1;stroke-width:0.46091992"
           d="m 2217.678,-799.6855 q 2.7139,0 4.2478,1.65194 1.534,1.65193 1.534,4.64115 v 15.26076 h -6.2144 v -14.1988 q 0,-1.57327 -0.5114,-2.16325 -0.4719,-0.62931 -1.4552,-0.62931 -1.888,0 -3.6186,2.7139 v 14.27746 h -6.2144 v -20.88521 h 5.4278 l 0.4327,2.47791 q 1.3372,-1.57328 2.8712,-2.35991 1.5732,-0.78664 3.5005,-0.78664 z" />
        <path
           id="path875"
           style="font-style:normal;font-variant:normal;font-weight:bold;font-stretch:normal;font-family:'Fira Sans';-inkscape-font-specification:'Fira Sans Bold';letter-spacing:-1.69721496px;fill:#ffffff;fill-opacity:1;stroke-width:0.46091992"
           d="m 2235.4568,-799.6855 q 2.1633,0 3.8939,0.62931 1.7306,0.62931 3.2645,1.92726 l -2.6746,3.69719 q -1.9665,-1.49461 -3.9725,-1.49461 -2.0846,0 -3.1465,1.53394 -1.062,1.53395 -1.062,4.95582 0,3.30387 1.062,4.68048 1.0619,1.37662 3.0679,1.37662 1.0619,0 1.9272,-0.31466 0.8653,-0.35398 2.0846,-1.10129 l 2.7139,3.85452 q -3.1072,2.47791 -7.0404,2.47791 -3.1859,0 -5.5064,-1.33728 -2.3206,-1.37662 -3.5792,-3.81519 -1.2587,-2.47791 -1.2587,-5.78178 0,-3.30388 1.2587,-5.86045 1.2586,-2.55657 3.5792,-3.97251 2.3205,-1.45528 5.3884,-1.45528 z" />
        <path
           id="path877"
           style="font-style:normal;font-variant:normal;font-weight:bold;font-stretch:normal;font-family:'Fira Sans';-inkscape-font-specification:'Fira Sans Bold';letter-spacing:-1.69721496px;fill:#ffffff;fill-opacity:1;stroke-width:0.46091992"
           d="m 2249.7486,-799.01686 v 20.88521 h -6.2144 v -20.88521 z m -3.1465,-11.01291 q 1.6126,0 2.6352,1.02263 1.062,0.98329 1.062,2.51723 0,1.53394 -1.062,2.55657 -1.0226,0.9833 -2.6352,0.9833 -1.6126,0 -2.6353,-0.9833 -1.0226,-1.02263 -1.0226,-2.55657 0,-1.53394 1.0226,-2.51723 1.0227,-1.02263 2.6353,-1.02263 z" />
        <path
           id="path879"
           style="font-style:normal;font-variant:normal;font-weight:bold;font-stretch:normal;font-family:'Fira Sans';-inkscape-font-specification:'Fira Sans Bold';letter-spacing:-1.69721496px;fill:#ffffff;fill-opacity:1;stroke-width:0.46091992"
           d="m 2269.4971,-784.18876 q 0,1.17996 0.3146,1.73061 0.354,0.55064 1.1013,0.82596 l -1.2979,4.05118 q -1.9273,-0.15732 -3.1466,-0.82597 -1.2192,-0.70797 -1.8879,-2.20258 -2.0452,3.14655 -6.2931,3.14655 -3.1072,0 -4.9558,-1.80927 -1.8486,-1.80926 -1.8486,-4.71982 0,-3.42187 2.5172,-5.23113 2.5173,-1.80927 7.2764,-1.80927 h 2.124 v -0.90463 q 0,-1.84859 -0.7867,-2.51724 -0.7866,-0.70797 -2.7532,-0.70797 -1.0226,0 -2.4779,0.31466 -1.4553,0.27532 -2.9892,0.78663 l -1.416,-4.09051 q 1.9666,-0.7473 4.0119,-1.14062 2.0846,-0.39332 3.8545,-0.39332 4.4838,0 6.5684,1.8486 2.0846,1.84859 2.0846,5.54579 z m -9.4003,2.28125 q 2.1239,0 3.3039,-2.00592 v -3.6972 h -1.534 q -2.1239,0 -3.1859,0.74731 -1.0226,0.7473 -1.0226,2.32058 0,1.25862 0.6293,1.96659 0.6687,0.66864 1.8093,0.66864 z" />
      </g>
      <g
         transform="matrix(0.22373782,0,0,-0.22373782,2272.9377,-799.09089)"
         id="g15935"
         style="fill:#ffffff;fill-opacity:1">
        <g
           id="g15913"
           style="fill:#ffffff;fill-opacity:1" />
        <g
           id="g15933"
           style="fill:#ffffff;fill-opacity:1">
          <g
             clip-path="url(#clipPath7754-0)"
             id="g15931"
             style="fill:#ffffff;fill-opacity:1">
            <g
               clip-path="url(#clipPath7760-1)"
               id="g15929"
               style="fill:#ffffff;fill-opacity:1">
              <g
                 id="g15915"
                 style="fill:#ffffff;fill-opacity:1" />
              <g
                 id="g15927"
                 style="fill:#ffffff;fill-opacity:1">
                <g
                   id="g15925"
                   clip-path="url(#clipPath7766-2)"
                   style="fill:#ffffff;fill-opacity:1">
                  <g
                     id="g15917"
                     style="fill:#ffffff;fill-opacity:1" />
                  <g
                     id="g15923"
                     style="fill:#ffffff;fill-opacity:1">
                    <g
                       id="g15921"
                       clip-path="url(#clipPath7770-1)"
                       style="fill:#ffffff;fill-opacity:1">
                      <path
                         id="path15919"
                         style="fill:#ffffff;fill-opacity:1;fill-rule:nonzero;stroke:none"
                         d="M 5,185 H 187.3784 V 7.894703 H 5 Z" />
                    </g>
                  </g>
                </g>
              </g>
            </g>
          </g>
        </g>
      </g>
    </g>
  </g>
</svg>
