<?xml version="1.0" encoding="UTF-8" standalone="no"?>
<svg
   xmlns:dc="http://purl.org/dc/elements/1.1/"
   xmlns:cc="http://creativecommons.org/ns#"
   xmlns:rdf="http://www.w3.org/1999/02/22-rdf-syntax-ns#"
   xmlns:svg="http://www.w3.org/2000/svg"
   xmlns="http://www.w3.org/2000/svg"
   id="svg16078"
   version="1.1"
   viewBox="0 0 13.229166 13.229167"
   height="50"
   width="50">
  <defs
     id="defs16072">
    <clipPath
       clipPathUnits="userSpaceOnUse"
       id="clipPath7754-0">
      <path
         d="M 136.6999,79.17835 154.765,51.34518 c 1.7071,-2.63012 0.9588,-6.14611 -1.6713,-7.85318 -2.2481,-1.45912 -5.2104,-1.1474 -7.1055,0.74772 L 116.2553,73.9726 c -12.4967,12.49678 -12.4967,32.7581 0,45.2548 l 29.7329,29.7329 c 2.2172,2.2172 5.8119,2.2172 8.0291,0 1.8951,-1.8951 2.2068,-4.8574 0.7477,-7.1054 l -18.0651,-27.8332 c -6.8775,-10.5963 -6.8775,-24.24704 0,-34.84335 z m 13.6785,17.7965 c 0,8.83655 7.1634,16.00005 16,16.00005 8.8366,0 16,-7.1635 16,-16.00005 0,-8.83656 -7.1634,-16 -16,-16 -8.8366,0 -16,7.16344 -16,16 z m -71.0531,50.21845 15.07168,29.5614 c 1.4242,2.7934 4.8433,3.9034 7.63672,2.4792 2.3877,-1.2174 3.5989,-3.9386 2.9052,-6.5274 L 94.05588,132.0906 C 89.48176,115.0197 71.93498,104.8891 54.86407,109.4632 l -40.61588,10.883 c -3.0287,0.8115 -4.826067,3.9247 -4.01453,6.9534 0.69366,2.5887 3.1032,4.3398 5.77965,4.2002 l 33.13677,-1.7282 c 12.61543,-0.6579 24.4373,6.1674 30.17522,17.4217 z m -22.25147,2.9476 c -7.65268,-4.4182 -17.43812,-1.7962 -21.8564,5.8565 -4.41828,7.6526 -1.79628,17.4381 5.8564,21.8564 7.65269,4.4182 17.43813,1.7962 21.85641,-5.8564 4.41828,-7.6527 1.79628,-17.4382 -5.85641,-21.8565 z M 49.10994,63.49794 15.97318,61.76971 c -3.13129,-0.16331 -5.80209,2.24271 -5.9654,5.374 -0.139587,2.67646 1.6115,5.086 4.20028,5.77966 l 40.61587,10.88299 c 17.07091,4.57413 34.6177,-5.55651 39.19185,-22.62742 L 104.8988,20.56307 c 0.8115,-3.02871 -0.9859,-6.14184 -4.0146,-6.95338 -2.58872,-0.69366 -5.31002,0.51752 -6.52732,2.90519 L 79.28516,46.07628 C 73.54724,57.33054 61.72538,64.1559 49.10994,63.49794 Z M 57.68293,42.75379 C 65.33561,38.33551 67.95761,28.55006 63.53933,20.89738 59.12105,13.2447 49.33561,10.62269 41.68293,15.04097 34.03024,19.45925 31.40824,29.2447 35.82652,36.89738 c 4.41828,7.65268 14.20372,10.27468 21.85641,5.85641 z"
         id="path7752-8"
         style="clip-rule:evenodd" />
    </clipPath>
    <clipPath
       clipPathUnits="userSpaceOnUse"
       id="clipPath7760-1">
      <path
         d="M 0,0 H 192 V 192 H 0 Z"
         id="path7758-6" />
    </clipPath>
    <clipPath
       clipPathUnits="userSpaceOnUse"
       id="clipPath7766-2">
      <path
         d="M 5,7 H 188 V 185 H 5 Z"
         id="path7764-1" />
    </clipPath>
    <clipPath
       clipPathUnits="userSpaceOnUse"
       id="clipPath7770-1">
      <path
         d="M 9,10 H 183 V 183 H 9 Z"
         id="path7768-4" />
    </clipPath>
  </defs>
  <metadata
     id="metadata16075">
    <rdf:RDF>
      <cc:Work
         rdf:about="">
        <dc:format>image/svg+xml</dc:format>
        <dc:type
           rdf:resource="http://purl.org/dc/dcmitype/StillImage" />
        <dc:title></dc:title>
      </cc:Work>
    </rdf:RDF>
  </metadata>
  <g
     transform="translate(-27.964483,-147.13176)"
     id="layer1">
    <g
       transform="matrix(0.05845233,0,0,-0.05845233,29.192818,159.38393)"
       id="g12339"
       style="fill:#000000;fill-opacity:1" />
    <path
       transform="matrix(0.26458333,0,0,0.26458333,27.964483,147.13176)"
       id="path20567"
       d="m 18.077942,22.324793 c -0.121534,-0.01223 -0.405639,-0.05163 -0.631345,-0.08756 -0.504362,-0.08028 -9.5369751,-2.4857 -9.8613058,-2.626106 -0.2875882,-0.1245 -0.457111,-0.299878 -0.5844465,-0.604635 -0.2900454,-0.694176 0.083352,-1.483822 0.7925923,-1.676142 0.1607926,-0.0436 1.3812395,-0.0013 4.166879,0.144392 4.209511,0.220176 4.667044,0.217897 5.628633,-0.02804 1.699634,-0.434693 3.194768,-1.483856 4.13971,-2.90491 0.19745,-0.296935 1.149948,-2.094794 2.116663,-3.995241 1.859084,-3.6547368 1.922813,-3.7572261 2.422601,-3.8960182 0.361902,-0.1005011 0.530426,-0.08213 0.889912,0.097009 0.358913,0.1788538 0.600101,0.5059779 0.674879,0.91534 0.03299,0.180607 -0.223151,1.2144136 -1.254087,5.0615662 -0.712551,2.659032 -1.383118,5.044957 -1.490148,5.302055 -0.985437,2.367126 -3.21009,4.001403 -5.821306,4.276455 -0.584266,0.06154 -0.762198,0.06481 -1.189231,0.02183 z"
       style="opacity:1;fill:#505d6b;fill-opacity:1;stroke:none;stroke-width:0.42089689;stroke-linecap:round;stroke-linejoin:round;stroke-miterlimit:4;stroke-dasharray:none;stroke-opacity:1;paint-order:markers stroke fill" />
    <path
       transform="matrix(0.26458333,0,0,0.26458333,27.964483,147.13176)"
       id="path20569"
       d="m 37.359449,36.80112 c -0.191904,-0.07093 -1.060219,-0.901533 -3.779123,-3.615012 -2.03895,-2.034882 -3.689008,-3.734497 -3.906487,-4.023813 -0.841226,-1.119099 -1.299356,-2.420063 -1.359997,-3.862014 -0.05314,-1.263535 0.133878,-2.236295 0.643089,-3.345033 0.461861,-1.00564 0.693691,-1.267782 4.474897,-5.059989 2.078156,-2.084201 3.697637,-3.659069 3.826716,-3.721296 0.278092,-0.134065 0.794374,-0.134584 1.052584,-0.0011 0.394946,0.204234 0.722872,0.73111 0.714874,1.148583 -0.0056,0.290386 -0.264139,0.723791 -2.334868,3.913525 -2.239313,3.449421 -2.493116,3.901475 -2.76529,4.925309 -0.431189,1.621999 -0.255008,3.408784 0.482452,4.892927 0.163915,0.329878 1.232664,2.03451 2.375,3.788072 1.142335,1.753561 2.117371,3.301936 2.166746,3.440832 0.323419,0.909796 -0.670551,1.859006 -1.590593,1.518967 z"
       style="opacity:1;fill:#505d6b;fill-opacity:1;stroke:none;stroke-width:0.42089689;stroke-linecap:round;stroke-linejoin:round;stroke-miterlimit:4;stroke-dasharray:none;stroke-opacity:1;paint-order:markers stroke fill" />
    <path
       transform="matrix(0.26458333,0,0,0.26458333,27.964483,147.13176)"
       id="path20571"
       d="m 40.489033,28.269318 c -1.498877,-0.403139 -2.599093,-1.840911 -2.595396,-3.391687 0.003,-1.248281 0.739656,-2.493809 1.810147,-3.060468 0.45465,-0.240667 1.238791,-0.456175 1.659823,-0.456175 0.795182,0 1.79475,0.382722 2.384571,0.913021 1.179521,1.060491 1.487652,2.836863 0.73916,4.261246 -0.425925,0.810536 -1.304848,1.501387 -2.210086,1.737172 -0.459557,0.119699 -1.337292,0.118174 -1.788219,-0.0031 z"
       style="opacity:1;fill:#505d6b;fill-opacity:1;stroke:none;stroke-width:0.42089689;stroke-linecap:round;stroke-linejoin:round;stroke-miterlimit:4;stroke-dasharray:none;stroke-opacity:1;paint-order:markers stroke fill" />
    <path
       transform="matrix(0.26458333,0,0,0.26458333,27.964483,147.13176)"
       id="path20573"
       d="m 14.72233,13.496534 c -0.669721,-0.145031 -1.172531,-0.43078 -1.704976,-0.968946 -0.720023,-0.727758 -1.034365,-1.481823 -1.028687,-2.467682 0.0055,-0.9621537 0.351165,-1.7869494 1.031786,-2.4622464 0.687459,-0.6820831 1.483766,-1.0086539 2.459491,-1.0086539 0.983631,0 1.786956,0.3276544 2.458544,1.0027736 1.086917,1.0926313 1.352232,2.6397327 0.691344,4.0313477 -0.144976,0.305271 -0.337592,0.559688 -0.681616,0.900312 -0.553542,0.548071 -0.93705,0.772098 -1.62135,0.947112 -0.563607,0.144147 -1.024423,0.151609 -1.604536,0.02598 z"
       style="opacity:1;fill:#505d6b;fill-opacity:1;stroke:none;stroke-width:0.42089689;stroke-linecap:round;stroke-linejoin:round;stroke-miterlimit:4;stroke-dasharray:none;stroke-opacity:1;paint-order:markers stroke fill" />
    <path
       transform="matrix(0.26458333,0,0,0.26458333,27.964483,147.13176)"
       id="path20575"
       d="m 26.189914,43.239326 c -0.13413,-0.04782 -0.325336,-0.164986 -0.424903,-0.260377 -0.109066,-0.104491 -0.877865,-1.543333 -1.933933,-3.619445 -0.964096,-1.895303 -1.914451,-3.688953 -2.111901,-3.985888 -1.153446,-1.734614 -3.101105,-2.889676 -5.197513,-3.082394 -0.410785,-0.03776 -1.668059,0.0043 -4.537981,0.151987 -2.8167575,0.144906 -4.036188,0.18621 -4.1984461,0.142207 -0.318334,-0.08633 -0.6175238,-0.328121 -0.7659031,-0.618969 -0.2621096,-0.513777 -0.085164,-1.24572 0.3747226,-1.550058 0.1650792,-0.109245 1.5324328,-0.502984 4.7116576,-1.356756 2.463497,-0.661565 4.65046,-1.243058 4.859918,-1.292207 3.340539,-0.783848 6.803524,0.975099 8.113114,4.120877 0.106893,0.256767 0.777552,2.642196 1.490355,5.300953 1.406001,5.244394 1.365012,5.027912 1.053549,5.564235 -0.118481,0.204016 -0.242255,0.312708 -0.48459,0.425541 -0.368164,0.171421 -0.595813,0.185897 -0.948146,0.06029 z"
       style="opacity:1;fill:#505d6b;fill-opacity:1;stroke:none;stroke-width:0.42089689;stroke-linecap:round;stroke-linejoin:round;stroke-miterlimit:4;stroke-dasharray:none;stroke-opacity:1;paint-order:markers stroke fill" />
    <path
       transform="matrix(0.26458333,0,0,0.26458333,27.964483,147.13176)"
       id="path20577"
       d="m 15.098018,43.394234 c -1.362017,-0.212736 -2.527287,-1.252573 -2.867533,-2.558866 -0.121654,-0.467062 -0.123377,-1.343487 -0.0035,-1.793848 0.161461,-0.606716 0.46699,-1.135708 0.911127,-1.577522 0.687909,-0.684312 1.513277,-1.035306 2.43656,-1.036167 1.021786,-9.53e-4 1.764852,0.30584 2.499839,1.032119 0.884017,0.873545 1.226093,1.986843 0.974818,3.172585 -0.271253,1.280014 -1.336665,2.398759 -2.559206,2.687316 -0.441345,0.104172 -1.007633,0.13443 -1.392079,0.07438 z"
       style="opacity:1;fill:#505d6b;fill-opacity:1;stroke:none;stroke-width:0.42089689;stroke-linecap:round;stroke-linejoin:round;stroke-miterlimit:4;stroke-dasharray:none;stroke-opacity:1;paint-order:markers stroke fill" />
  </g>
</svg>
